<svg width="168" height="198" viewBox="0 0 168 198" fill="none" xmlns="http://www.w3.org/2000/svg">
<g clip-path="url(#clip0_9_1850)">
<path d="M78.7246 44.2803C80.4436 43.8477 80.1451 39.3672 78.3952 39.7586C76.6556 40.1603 77.0056 44.713 78.7246 44.2803Z" fill="#151B21"/>
<path d="M72.6514 51.7378C70.1912 53.3859 66.712 53.0872 64.5813 51.0683C64.3651 50.8932 64.0357 50.9241 63.8607 51.1404C63.6858 51.3567 63.7166 51.6863 63.9328 51.8614C66.4444 53.973 70.3354 54.1172 72.9499 52.1396C73.2072 51.9541 72.919 51.5421 72.6514 51.7275V51.7378Z" fill="#151B21"/>
<path d="M65.3119 45.2485C67.1751 44.7335 66.7324 40.3354 64.9826 40.7268C63.2327 41.1182 63.4488 45.7635 65.3119 45.2485Z" fill="#151B21"/>
<path d="M74.3396 44.0128C73.9484 43.7244 73.5161 43.5699 73.1044 43.436C72.9706 43.3948 72.8162 43.4566 72.7544 43.5905C72.6824 43.745 72.7647 43.9201 72.9191 43.9716C74.7307 44.6205 74.7925 45.9492 73.4647 47.1646C73.2073 47.35 73.1764 47.7414 73.4132 47.9577C74.1543 48.5036 74.6793 47.2264 74.9572 46.7423C75.4307 45.8874 75.2454 44.5175 74.3396 44.0128Z" fill="#151B21"/>
<path d="M47.6485 49.4821C47.2471 49.4718 47.2162 50.0898 47.6176 50.1207C49.3675 50.2546 50.8189 51.5112 51.0659 53.2725C51.1792 53.9729 52.2497 53.7463 52.0747 53.0665C51.6218 50.9756 49.7896 49.5027 47.6485 49.4924V49.4821Z" fill="#151B21"/>
<path d="M165.149 79.2803C164.881 79.1876 164.603 79.1258 164.325 79.0949C164.48 78.9301 164.603 78.755 164.675 78.6314C164.881 78.2606 164.943 77.7455 164.747 77.3232C163.78 75.7679 161.567 76.149 159.765 76.5919C159.992 75.8915 159.899 75.0984 159.343 74.501C158.89 74.1405 158.417 74.1096 157.995 74.089C155.905 74.089 153.908 74.8615 152.035 75.6855C149.235 76.9936 146.6 78.7756 144.593 81.1858C143.275 79.1258 140.928 75.7267 138.283 77.6219C137.294 78.2812 137.768 79.6408 138.015 80.5163C138.489 82.5866 138.9 84.7909 138.602 86.9024C138.509 87.0569 138.509 87.1702 138.375 87.3659C136.605 90.0233 134.701 92.5881 132.724 95.1013C132.662 95.1219 132.611 95.1528 132.559 95.194C132.457 95.2867 132.405 95.4 132.384 95.5339C129.441 99.2832 126.373 102.94 123.398 106.638C120.743 103.836 118.015 101.096 115.369 98.2944C110.078 92.4542 104.654 86.6346 98.241 81.9892C96.4293 80.5987 94.4633 79.4142 92.4149 78.4048L92.7237 78.4872C92.7237 78.4872 96.522 73.8212 93.3413 68.6711C90.1606 63.521 85.4256 65.3545 87.0211 60.8739C88.6166 56.3933 84.8697 48.0502 84.8697 48.0502L84.8492 48.1944C84.386 43.8168 83.4698 39.4701 81.9773 35.3295L82.2655 35.2059C88.1328 32.8883 89.0695 26.7391 89.2239 24.9057C89.5327 21.1668 88.4004 17.7265 86.5476 16.7274C84.3036 15.512 80.6082 16.4596 75.5027 17.7574C71.9514 18.6638 67.9267 19.6938 63.4593 20.2191C45.9192 22.2998 44.5707 30.6532 43.2738 38.7388C42.7591 41.9525 42.2238 45.2794 40.6078 48.0914C34.1434 59.3804 38.724 65.9416 40.6078 67.9604C38.0653 69.5672 30.5922 75.3147 32.023 86.4801L32.1568 87.5513C30.2216 88.9933 28.3173 90.4559 26.3924 91.8774C21.5751 95.5957 16.8401 99.4068 12.2286 103.383C9.92287 105.371 7.64801 107.389 5.4555 109.522C3.26298 111.674 0.802839 113.909 0.298458 117.133C-2.20286 129.133 10.7669 139.783 18.0135 147.848C18.8061 148.642 19.5987 149.435 20.3913 150.228C20.2472 150.413 20.0928 150.599 19.9487 150.794C19.6193 151.237 20.3296 151.711 20.6178 151.268C20.731 151.114 20.8546 150.959 20.9678 150.805C22.2236 152.051 23.4897 153.277 24.797 154.461C24.7352 154.544 24.6734 154.626 24.622 154.708C24.4367 154.976 24.869 155.244 25.0337 154.976C25.0749 154.914 25.1264 154.853 25.1675 154.791C27.2365 156.645 29.4084 158.386 31.7656 159.869C33.0317 160.713 34.3802 161.445 35.4301 162.454L37.0977 164.009C37.705 164.535 38.5079 165.359 39.4034 165.524C39.4034 165.554 39.3828 165.585 39.3828 165.627C38.899 174.814 39.249 184.002 39.4652 193.19C39.4652 193.643 40.1651 193.612 40.1548 193.169C40.0416 184.002 39.8152 174.825 40.4019 165.678C40.4019 165.575 40.3813 165.493 40.3504 165.421C40.371 165.421 40.3916 165.421 40.4122 165.4C42.2959 164.504 40.6283 161.692 39.2284 159.704C40.4431 160.672 41.4827 161.898 42.3782 163.206C43.4693 164.597 44.0767 166.42 45.7133 167.378C47.4118 167.975 47.8235 166.183 47.6176 164.916C48.822 166.069 50.1395 165.06 49.9954 163.484C49.9439 162.969 49.8513 162.464 49.7484 161.97C49.9028 162.073 50.0881 162.166 50.3248 162.207C51.8071 162.207 51.1174 159.92 50.9424 159.076C49.9028 155.738 48.4205 152.205 45.7545 149.836C46.7633 146.726 47.9882 143.646 48.7911 140.474C52.5276 142.348 56.2539 144.254 60.0419 146.056C65.0342 148.312 70.3148 151.011 75.8629 151.546C76.0482 157.788 74.0513 163.906 70.4486 168.984C70.3353 169.067 70.253 169.19 70.2324 169.335C69.6663 174.217 69.131 180.15 68.6472 185.382C68.2561 189.719 67.8752 193.808 67.5458 196.671C67.5149 196.949 67.7208 197.207 67.9987 197.238C68.0193 197.238 68.0399 197.238 68.0605 197.238C68.3178 197.238 68.5443 197.042 68.5752 196.785C68.9045 193.911 69.2751 189.811 69.6766 185.475C70.006 181.901 70.3559 178.007 70.7368 174.34C72.5279 180.273 77.8084 197.815 77.8084 197.815C77.9216 198.196 78.5084 198.01 78.3951 197.639L71.5911 171.982C71.5603 171.879 71.5191 171.796 71.4676 171.724C77.4173 166.729 79.6921 158.87 80.5156 151.392C86.5682 150.31 91.3855 145.83 95.6985 141.679C95.7397 143.615 96.0588 145.459 96.3161 147.344C97.3146 153.74 98.6733 160.075 99.8982 166.43L104.932 191.82C104.963 191.995 105.127 192.108 105.302 192.077C105.477 192.046 105.601 191.882 105.57 191.696C104.17 183.178 102.616 174.68 100.948 166.214L98.4572 153.514C97.891 150.372 96.7793 145.768 96.2749 142.276C96.3367 142.307 96.4088 142.338 96.4808 142.328C96.6558 142.297 96.7793 142.132 96.7484 141.957C96.6867 141.524 96.6455 141.092 96.5837 140.659C96.594 140.566 96.5837 140.463 96.5529 140.371C95.7191 133.418 96.0588 126.373 96.6249 119.399C97.0469 111.88 98.8483 104.114 96.9646 96.6772C96.8925 96.4197 96.5117 96.533 96.5529 96.7699C97.1499 100.468 96.8308 104.238 96.5426 107.997C95.9764 114.651 94.9471 124.096 95.0912 130.699C95.1015 133.016 95.2456 135.344 95.4926 137.651C90.3871 141.122 85.0139 144.377 78.7245 144.285C68.6575 144.027 58.9816 140.566 49.316 137.929C49.5013 136.796 49.6351 135.653 49.6454 134.489C48.9969 129.215 46.8456 124.343 45.1472 119.379L41.5959 109.552C42.2959 109.099 42.9855 108.636 43.6958 108.193C43.8399 108.11 43.8811 107.925 43.7987 107.781C43.7164 107.637 43.5311 107.595 43.387 107.678C39.7328 109.882 36.1507 112.2 32.6406 114.62C29.182 116.999 25.7954 119.461 22.4912 122.067L22.378 122.016C22.3059 121.985 22.2339 121.974 22.1721 121.974C19.6811 121.037 17.0357 120.563 14.4108 120.615C14.1329 120.615 14.1329 121.037 14.4108 121.047C17.046 121.181 19.6296 121.851 21.9765 122.963L22.3162 123.118C22.3162 123.118 22.3471 123.118 22.3574 123.118C25.3116 128.649 29.0688 133.665 33.2479 138.311C33.0317 138.444 32.8053 138.599 32.6406 138.712C28.3379 141.874 24.2514 145.387 20.9163 149.579C20.1443 148.806 19.3826 148.034 18.6209 147.261C14.4108 142.904 10.242 138.465 6.48484 133.737C4.6526 131.358 3.03653 128.783 1.99688 125.992C0.483741 121.954 0.195523 116.896 3.01594 113.405C5.98046 109.995 9.46996 107.039 12.8771 104.062C17.4886 100.118 22.2133 96.3167 27.0306 92.6293C28.8114 91.3212 30.5716 89.9821 32.3524 88.6534V88.6946L34.1949 87.3968C39.177 83.8844 43.2326 81.2991 45.6413 80.1249C49.0381 78.4563 52.4761 77.1996 55.0186 76.3756C55.9451 76.1387 56.8818 75.943 57.8288 75.7782C55.7186 77.9104 53.6599 80.1146 51.8791 82.5454C51.21 83.6681 49.9234 85.0072 50.4072 86.4801C50.9012 87.2629 51.7865 87.5719 52.5791 87.9015C55.5333 88.9521 58.6214 89.4156 61.7094 89.8379C61.1227 90.8577 60.5874 91.9186 60.3404 93.0928C60.2683 93.546 60.1757 94.1022 60.5668 94.6584C60.9786 95.1013 61.3388 95.2661 61.7197 95.5133C65.9503 97.7691 70.3251 99.7261 74.8645 101.302C74.988 101.343 75.1321 101.281 75.1836 101.148C75.235 101.014 75.163 100.869 75.0292 100.818C70.6544 99.036 66.2591 97.1202 62.1211 94.8129C61.7712 94.6069 61.3491 94.3597 61.1741 94.164C60.6389 92.825 62.0079 90.868 62.5535 89.6216C62.5741 89.4465 62.4402 89.2817 62.2653 89.2611C58.6111 88.7255 54.679 88.4474 51.3747 86.7067C48.8425 85.4089 56.6553 77.5807 58.4258 75.6855C58.467 75.6855 58.5081 75.6649 58.5596 75.6649C58.5905 75.6649 58.6008 75.634 58.6214 75.6237C58.6111 75.6443 58.5905 75.6546 58.5802 75.6752C57.52 77.9104 57.8596 80.4957 58.9199 82.5969C60.8242 86.6655 76.3261 105.783 79.023 95.2867C80.1862 91.5169 80.5671 79.1464 77.0673 75.9018C80.2068 77.0657 83.439 78.1679 86.2903 79.8983C86.5888 80.1661 86.7329 80.1146 86.5476 80.5266C85.333 82.5866 83.3566 84.2759 81.6376 85.9445C81.442 86.1196 81.5038 86.4698 81.7508 86.5522C82.8522 87.0157 84.4271 87.5513 85.1065 88.4886C85.1683 88.6122 85.1683 88.6122 85.1477 88.7564C83.9227 92.4954 81.6685 95.9665 79.3627 99.1287C79.2083 99.2935 79.4657 99.5098 79.6098 99.3553C82.1729 96.4094 84.2418 93.031 85.755 89.4465C86.5476 87.5719 84.1183 86.6449 82.5434 86.0681C84.2213 84.4304 85.9609 82.875 87.1446 80.7841C87.2167 80.5678 87.3814 80.3103 87.2064 79.8983C87.0314 79.6099 86.8461 79.4966 86.6608 79.3627C84.8698 78.2297 82.8728 77.5292 80.9273 76.7464C79.4039 76.1696 77.8805 75.6134 76.3467 75.0881C78.8275 75.222 81.2979 75.634 83.7272 76.2314C94.1133 78.4048 102.338 85.5737 109.615 92.9383C114.062 97.7691 118.746 102.414 123.306 107.142C123.357 107.297 123.481 107.431 123.635 107.492C124.428 108.316 125.22 109.13 126.003 109.954C126.157 110.129 126.414 109.872 126.27 109.717C125.57 108.934 124.85 108.172 124.129 107.4C124.15 107.379 124.181 107.369 124.201 107.338C127.145 103.702 130.068 100.066 132.94 96.3785C134.69 98.3459 136.625 100.138 138.653 101.786C140.64 103.393 142.74 104.866 144.963 106.153C143.213 108.831 141.494 111.53 139.724 114.198C137.202 118.05 134.608 121.861 131.808 125.518C129.194 129.051 123.707 130.173 119.754 128.433C116.985 127.258 114.577 125.312 112.25 123.334C107.639 119.296 103.357 114.836 98.6013 110.891C98.2719 110.613 97.8704 111.128 98.1792 111.396C102.883 115.341 107.124 119.801 111.756 123.901C117.438 128.999 123.573 132.656 130.82 127.794C134.639 123.942 137.387 119.142 140.496 114.723C142.307 112.024 144.068 109.295 145.848 106.586C146.023 106.545 146.147 106.349 146.126 106.174C147.063 104.763 148.01 103.362 148.978 101.982C149.266 101.951 149.461 101.642 149.41 101.364C149.863 100.715 150.316 100.056 150.779 99.4171C152.199 97.4086 153.661 95.4309 155.401 93.6902C156.646 92.2997 159.086 91.1152 160.692 90.1675C161.618 89.5495 162.925 88.9521 163.162 87.747C163.213 86.9333 162.514 86.3977 161.927 86.2844C160.733 86.0578 159.559 86.2535 158.417 86.5625C160.547 84.9145 162.822 83.5136 165.293 82.3909C166.477 81.6699 166.487 79.8777 165.159 79.3112L165.149 79.2803ZM78.8481 156.624C77.7364 161.991 75.2556 166.966 71.1176 170.602C71.1588 170.262 71.1897 169.932 71.2309 169.602C71.2309 169.602 71.2412 169.592 71.2515 169.582C73.0528 166.801 74.5248 163.762 75.3894 160.549C76.1923 157.613 76.4497 154.554 76.2953 151.536C77.3246 151.608 78.354 151.618 79.4039 151.536C79.5377 151.526 79.6612 151.495 79.7951 151.474C79.5377 153.205 79.2701 154.935 78.8584 156.635L78.8481 156.624ZM72.4043 144.923C81.7817 146.715 88.3695 144.171 95.5647 138.383C95.6367 138.97 95.7191 139.557 95.8014 140.134C95.7705 140.154 95.7397 140.165 95.7088 140.195C92.559 143.347 89.296 146.448 85.4874 148.652C84.9933 148.878 83.7478 149.496 83.264 149.713L82.4817 149.96C80.4847 150.671 78.354 150.887 76.2438 150.732V150.681C76.2232 150.434 75.8527 150.465 75.8527 150.691C74.813 150.599 73.7837 150.423 72.7852 150.166C64.4166 147.962 56.7171 143.605 48.9146 139.876C49.0175 139.423 49.1308 138.959 49.2131 138.506C56.8406 141.019 64.4578 143.564 72.4043 144.892V144.923ZM23.2735 122.726C26.4542 120.141 29.7378 117.659 33.0832 115.279C35.6669 113.436 38.2917 111.674 40.9577 109.954C41.4004 111.211 44.3855 119.647 44.3855 119.647C47.7103 129.154 49.1925 132.532 48.3999 137.682C48.0499 137.589 47.9161 138.115 48.2455 138.218L48.3073 138.238C48.2249 138.671 48.1323 139.114 48.0294 139.577C47.9779 139.598 47.9264 139.639 47.8955 139.701C47.8544 139.794 47.875 139.886 47.9367 139.959C47.6691 141.04 47.3191 142.214 46.8765 143.543C46.8765 143.481 46.8868 143.43 46.8971 143.368C46.928 143.121 46.6294 142.915 46.4133 143.049C44.9001 143.821 43.2326 144.882 41.5445 144.923C40.5666 144.635 39.7534 143.883 38.9711 143.213C36.83 141.256 34.9052 139.021 33.0215 136.776C29.3673 132.409 25.8366 127.825 23.2838 122.737L23.2735 122.726ZM32.0024 139.835C32.4244 139.526 33.0832 139.011 33.5773 138.712C35.1522 140.443 36.7889 142.132 38.4667 143.77C39.3519 144.501 40.2269 145.304 41.4004 145.624C43.1502 145.655 44.6531 144.738 46.1354 143.934C45.8471 145.613 45.3839 147.436 44.3752 148.734V148.745C44.3443 148.724 44.3237 148.703 44.2928 148.683C43.9326 148.487 43.6443 149.054 44.0046 149.239C44.2825 149.383 44.5399 149.548 44.7869 149.744C44.8384 149.97 45.034 150.114 45.2501 150.135C45.8471 150.66 46.3927 151.289 46.8765 151.938C48.719 154.636 50.4072 157.84 50.613 161.125C50.5718 161.857 50.191 161.455 49.7175 161.094C49.666 161.043 49.594 161.033 49.5219 161.022C48.5543 157.459 46.4133 154.214 43.6855 151.773C43.3664 151.505 42.965 152.02 43.2841 152.267C45.5177 154.111 47.1235 156.676 48.297 159.313C48.8528 160.641 49.3572 162.063 49.4087 163.464C49.4087 165.585 48.0397 164.875 47.2779 163.536C47.2779 163.536 47.2676 163.536 47.2573 163.525C46.1559 159.931 43.984 156.676 41.143 154.214C40.7725 153.905 40.2887 154.482 40.6798 154.791C42.4091 156.212 43.7987 158.066 44.931 160.023C45.8986 161.857 47.1544 164.174 46.8559 166.234C46.7941 166.451 46.6912 166.595 46.5471 166.667C45.8471 166.904 45.3839 166.172 44.9207 165.616C42.9753 162.773 41.1739 159.539 37.9006 157.922C37.5609 157.726 37.1594 158.18 37.4374 158.489C38.6623 160.178 40.3298 162.073 40.5563 164.164C40.546 164.741 39.7637 164.947 39.3005 164.73C38.2403 164.267 36.8609 162.639 35.9448 161.877C34.7919 160.775 33.4332 160.054 32.1877 159.21C29.8408 157.726 27.6894 155.986 25.6307 154.132C28.4717 150.166 31.9098 146.602 35.5228 143.347C35.7081 143.203 36.0374 142.904 36.233 142.791C36.2227 142.791 36.2639 142.781 36.233 142.791C36.3051 142.781 36.3668 142.74 36.408 142.688C36.6139 142.4 36.233 142.111 35.986 142.266C35.7183 142.41 35.3787 142.729 35.1419 142.915C31.5083 146.221 28.1012 149.795 25.2499 153.802C23.9529 152.617 22.6971 151.392 21.4516 150.145C24.4367 146.252 28.1629 142.884 32.0127 139.845L32.0024 139.835ZM35.9963 142.729C36.058 142.77 36.1404 142.791 36.2021 142.781H36.1918C36.1198 142.801 36.0272 142.781 35.9963 142.729ZM75.8835 75.3559C75.8835 75.3559 75.8218 75.3868 75.8012 75.428C75.7909 75.4486 75.7909 75.4692 75.7806 75.4898C75.7806 75.3147 75.7703 75.1499 75.76 74.9748C75.8218 75.016 75.8938 75.0366 75.9865 75.0469C75.8835 75.1087 75.8424 75.2529 75.8732 75.3662L75.8835 75.3559ZM58.9405 75.5001C58.8684 75.4692 58.7963 75.4589 58.7243 75.4795C58.7655 75.4177 58.7861 75.3559 58.7861 75.2838C58.7861 75.2632 58.7655 75.2529 58.7552 75.2323L58.8581 75.2014C58.889 75.2941 58.9096 75.3971 58.9405 75.4898V75.5001ZM78.4672 81.5772C78.7142 83.8226 78.8172 86.0784 78.7657 88.3341C78.3848 99.345 76.0791 99.5098 68.2355 92.5263C66.5988 90.9916 65.0239 89.3538 63.5725 87.6337C60.958 84.3995 57.2832 80.3721 59.0846 75.9842C59.5375 77.5704 59.9904 79.1567 60.4536 80.7326C60.5257 80.9901 60.9168 80.8665 60.8448 80.6193C59.4243 75.3147 58.1787 69.9586 56.6347 64.6643C56.0995 62.5116 55.5436 60.4825 55.0392 59.1023L54.6275 57.9795L53.4643 58.237C53.2379 58.2885 53.0114 58.3091 52.7952 58.3091C51.5703 58.3091 49.6249 57.7632 47.8338 56.2285C46.403 55.0028 44.9413 52.3865 45.0854 50.3162C45.1472 49.3686 45.5486 48.6579 46.2795 48.1944C47.4941 47.4219 48.8631 47.4116 50.2425 48.1944L50.5616 48.3283C51.313 48.524 51.838 48.3283 52.1365 48.1326C53.2173 47.4219 53.4643 45.7429 53.804 42.8074C53.9687 41.3551 54.1643 39.7173 54.5451 38.2032C55.0804 36.0917 56.223 34.1759 56.7068 33.4136C59.4757 33.836 71.6838 35.4016 77.8702 30.9725C78.0452 30.8489 78.7039 30.3751 78.7039 30.3751C78.7039 30.3751 78.9613 30.509 79.7127 32.0334C80.4641 33.5578 81.1435 35.6385 81.1435 35.6385H81.1744C82.5846 39.9336 83.4389 44.4451 83.8095 48.936C83.9125 51.0784 83.9433 53.2518 83.3978 55.2706C82.914 57.2688 81.4523 58.8756 79.9186 60.3692C79.0745 61.152 77.0673 62.9751 76.357 63.83C74.5042 66.1064 74.8439 69.4436 74.8954 72.0908C75.0189 74.295 75.2865 76.4683 75.6468 78.6314C75.6674 78.7756 75.8938 78.7447 75.8835 78.6108C75.8732 77.6528 75.8321 76.6743 75.7909 75.6855C75.8218 75.7679 75.8938 75.8297 75.9762 75.8606C77.8187 76.973 78.2407 79.5481 78.4569 81.5875L78.4672 81.5772ZM133.548 95.5339C134.279 94.5863 135.009 93.6181 135.73 92.6602C139.549 95.9253 143.46 99.1905 148 101.56C147.094 102.878 146.209 104.207 145.334 105.535C140.938 102.837 136.914 99.4377 133.558 95.5339H133.548ZM164.953 81.8759C164.109 82.3291 162.987 82.7617 162.133 83.3076C160.27 84.3892 158.53 85.6355 156.873 87.0054C156.626 87.1908 156.862 87.6028 157.151 87.4895C158.612 87.0569 160.239 86.5831 161.742 86.8818C162.925 87.2217 162.452 88.1075 161.628 88.6431C160.784 89.3023 158.417 90.4972 157.459 91.0534C154.371 92.8353 152.199 95.7502 150.11 98.6137C150.038 98.6446 149.976 98.6961 149.935 98.7579C149.564 99.2729 149.214 99.7982 148.854 100.313C148.772 100.427 148.689 100.53 148.607 100.643C148.597 100.663 148.586 100.684 148.576 100.705C144.026 98.5622 139.981 95.4309 136.008 92.2688C136.43 91.7023 136.862 91.1461 137.284 90.5693C138.283 89.0654 139.755 87.6234 139.59 85.6355C139.6 83.3797 139.065 81.1858 138.53 79.0434C138.478 78.652 138.53 78.4666 138.797 78.2503C140.918 76.7052 143.079 80.3309 144.15 81.9171C144.387 82.3188 144.943 82.051 144.881 81.6699C146.837 79.2803 149.482 77.4983 152.292 76.2211C153.795 75.5104 160.64 72.9148 158.921 76.7773C158.736 76.8391 158.551 76.8906 158.386 76.9215C155.617 77.7558 153.126 79.373 151.067 81.3815C150.841 81.5875 151.18 81.9274 151.397 81.7214C153.424 79.7747 155.854 78.24 158.551 77.4571C158.736 77.4056 158.931 77.3644 159.117 77.3129C159.22 77.3438 159.343 77.3232 159.436 77.2305C160.496 76.973 161.597 76.7876 162.637 76.8185C163.286 76.8494 163.965 77.0863 164.181 77.5601C164.397 78.0237 164.027 78.6108 163.491 78.8992C163.43 78.9301 163.409 78.9919 163.378 79.0434C161.793 79.1258 160.208 79.8468 158.787 80.4545C156.842 81.4124 155.092 82.6999 153.486 84.1213C153.188 84.3789 153.599 84.8424 153.888 84.5746C156.245 82.4939 158.911 80.6708 161.978 79.8983C162.977 79.6717 164.068 79.4142 164.912 79.785C165.838 80.1764 165.766 81.3506 164.963 81.845L164.953 81.8759Z" fill="#151B21"/>
<path d="M147.681 86.3769C147.073 86.1503 146.456 86.1297 145.838 86.2327C143.851 86.5417 143.09 88.6636 142.554 90.3425C142.369 91.012 143.399 91.2695 143.553 90.6C143.944 88.4988 144.984 86.1709 147.506 86.8198C147.629 86.8713 147.773 86.8198 147.825 86.6859C147.876 86.5623 147.804 86.4284 147.681 86.3769Z" fill="#151B21"/>
<path d="M82.8731 106.926C82.8319 106.833 82.7186 106.782 82.626 106.823C79.8776 107.977 77.2734 109.47 74.875 111.283C74.3192 111.705 74.9985 112.54 75.5235 112.086C77.716 110.16 80.1556 108.502 82.7804 107.163C82.8628 107.122 82.9039 107.008 82.8731 106.916V106.926Z" fill="#151B21"/>
<path d="M76.7275 112.529C76.2025 112.993 76.9437 113.776 77.4377 113.281C78.4568 112.22 79.692 111.355 81.0611 110.758C81.2155 110.696 81.2875 110.521 81.236 110.356C81.1743 110.191 80.9993 110.099 80.8346 110.16C79.342 110.665 77.9421 111.479 76.7275 112.529Z" fill="#151B21"/>
<path d="M145.159 53.0459C149.564 49.7498 152.529 44.7851 153.939 39.5012C154.021 39.2128 153.826 38.914 153.538 38.8625C153.538 38.8625 123.635 33.352 123.254 33.2799C123.182 32.8885 118.097 4.48061 118.097 4.48061C118.046 4.16131 117.696 3.9656 117.407 4.0892C100.629 10.6916 93.3515 28.3255 101.885 44.507C109.718 59.7307 131.829 62.3881 145.159 53.0459ZM117.212 5.30462C118.035 9.51739 122.709 33.5786 122.719 33.5889C122.739 33.7022 122.832 33.8052 122.956 33.8258L152.755 39.7587C151.149 44.4143 148.236 48.8228 144.181 51.6862C131.592 59.8955 111.015 57.6912 103.439 43.7036C95.1529 28.5418 101.73 12.0203 117.202 5.31492L117.212 5.30462Z" fill="#151B21"/>
<path d="M125.93 29.3763C133.424 23.4434 141.299 18.0049 148.741 11.9587C148.772 11.9278 148.792 11.8969 148.813 11.8763C148.813 11.866 148.833 11.8557 148.844 11.8454C148.875 11.8042 148.895 11.7527 148.905 11.7115C148.905 11.6909 148.905 11.6806 148.916 11.66C148.916 11.6188 148.916 11.5879 148.916 11.5467C148.916 11.5158 148.916 11.4746 148.895 11.4437C148.895 11.4231 148.875 11.4025 148.875 11.3922C148.864 11.3613 148.854 11.3201 148.833 11.2892C142.801 2.98728 131.952 -1.17398 121.926 0.28864C121.854 0.28864 121.803 0.340141 121.782 0.391642C121.484 0.350441 121.154 0.535844 121.185 0.92725C121.864 10.4961 124.263 19.8074 125.416 29.3042C125.447 29.6132 125.827 29.5926 125.93 29.3763ZM122.173 0.690346C131.736 -0.463272 142.009 3.64649 147.691 11.4746C140.609 17.4384 133.095 22.8975 125.92 28.7892C124.911 19.4366 122.729 10.2386 122.214 0.844849C122.214 0.783048 122.194 0.741847 122.173 0.690346Z" fill="#151B21"/>
<path d="M141.494 21.3215C137.583 23.7936 133.537 26.348 128.874 29.469C128.638 29.6235 128.576 29.9428 128.73 30.1797C128.833 30.3239 128.988 30.4063 129.163 30.4063C129.224 30.4063 129.286 30.3754 129.348 30.3548C136.409 31.7865 146.6 34.1246 153.558 35.1444C153.558 35.1444 153.568 35.1444 153.579 35.1444C153.62 35.1444 153.651 35.1444 153.682 35.1444C153.918 35.1238 154.073 34.9486 154.104 34.7426C156.286 28.4286 155.833 20.652 152.488 14.8221C152.138 14.3277 151.541 14.5646 151.376 14.9869C147.876 17.2942 144.623 19.3439 141.484 21.3318L141.494 21.3215ZM153.239 34.0628C151.366 33.8259 149.451 33.4551 147.557 33.1152C143.944 32.456 134.958 30.6432 130.367 29.7162C134.628 26.8836 138.406 24.4837 142.05 22.1868C145.117 20.2503 148.298 18.2418 151.716 15.9964C154.587 21.3215 155.071 28.2947 153.249 34.0628H153.239Z" fill="#151B21"/>
<path d="M167.043 54.9102L154.876 55.5385C154.228 55.5694 154.248 56.5582 154.897 56.5685L165.272 56.7333L147.99 70.6076L136.482 64.4481C136.204 64.3039 135.864 64.3142 135.596 64.5099L112.92 80.5266C112.621 80.7224 112.951 81.1653 113.229 80.9799L136.162 66.2609C137.017 66.6626 147.825 71.6994 147.825 71.6994C148 71.7818 148.216 71.7715 148.381 71.6376L165.468 57.9178L162.514 67.6515C162.431 67.909 162.565 68.1871 162.823 68.2798C163.09 68.3828 163.389 68.2489 163.481 67.9811L167.928 56.1462C167.969 56.0329 167.99 55.9093 167.99 55.7754C167.959 55.2707 167.537 54.8896 167.043 54.9205V54.9102Z" fill="#151B21"/>
</g>
<defs>
<clipPath id="clip0_9_1850">
<rect width="168" height="198" fill="white"/>
</clipPath>
</defs>
</svg>
