<svg width="154" height="223" viewBox="0 0 154 223" fill="none" xmlns="http://www.w3.org/2000/svg">
<g clip-path="url(#clip0_9_1831)">
<path d="M125.824 111.012C122.67 111.613 120.564 114.953 120.703 118.077C120.792 121.427 124.054 124.678 127.564 123.663C134.227 121.584 133.812 109.889 125.824 111.012ZM127.178 122.117C124.657 122.58 122.364 120.422 122.087 117.949C121.731 115.436 123.333 112.323 125.952 111.692C133.1 110.49 132.952 120.639 127.178 122.117Z" fill="#151B21"/>
<path d="M135.473 106.234C132.932 106.342 130.698 108.608 130.945 111.17C131.064 111.318 131.281 111.338 131.449 111.357C134.998 111.801 136.363 110.047 135.967 106.628C135.928 106.391 135.72 106.224 135.473 106.234ZM131.657 110.559C131.726 110.451 131.766 110.382 131.795 110.224C132.092 109.022 132.912 107.988 134.079 107.534C134.376 107.416 134.702 107.337 135.028 107.288C135.206 109.732 134.366 110.766 131.657 110.569V110.559Z" fill="#151B21"/>
<path d="M114.069 75.4731C114.049 77.8181 113.842 80.2419 114.148 82.5573L116.58 86.2719C116.699 86.4492 116.896 86.5477 117.114 86.5379V86.5674C117.104 86.7448 117.381 86.7547 117.391 86.5872V86.4689C124.114 84.2914 130.925 82.2617 137.312 79.2468C137.312 79.2468 139.25 66.3789 139.358 65.6695C139.566 65.6203 139.764 65.571 139.981 65.5217C140.248 65.4626 140.416 65.1966 140.357 64.9306C140.298 64.6645 140.031 64.497 139.764 64.5561C139.526 64.6153 139.289 64.6744 139.052 64.7236C138.439 64.3394 135.374 62.4279 135.374 62.4279C135.226 62.3392 135.038 62.2998 134.86 62.3491C134.82 62.3491 115.206 68.2608 115.156 68.2707C114.988 68.3101 114.85 68.448 114.81 68.6352C114.316 70.9112 114.158 73.1872 114.059 75.4633L114.069 75.4731ZM136.946 78.9807C130.639 81.4834 124.054 83.3357 117.519 85.1388L118.617 72.3695C120.94 73.2858 125.152 74.7736 126.921 75.4534C127.692 75.7293 128.958 76.2022 129.719 76.4683C129.749 76.4781 129.838 76.5077 129.867 76.5175C129.907 76.5175 129.808 76.5175 129.996 76.5471C130.144 76.5668 130.263 76.4781 130.332 76.3697V76.419L138.251 66.8223C137.974 69.3742 136.946 78.9807 136.946 78.9807ZM129.65 76.1037C129.65 76.0249 129.709 75.9362 129.788 75.8771L129.739 75.9362L129.689 76.35C129.689 76.35 129.63 76.2811 129.64 76.1037H129.65ZM129.907 75.7293C129.531 75.5914 129.017 75.3844 128.691 75.2662C126.417 74.3893 122.571 72.8818 119.783 71.798C121.8 71.1477 123.718 70.4876 125.587 69.857C129.6 68.4874 133.426 67.1869 137.599 66.1129L129.907 75.7391V75.7293ZM134.949 63.827C135.473 64.0832 136.64 64.6645 137.539 65.098C133.249 66.1917 129.353 67.5219 125.26 68.9111C123.066 69.6599 120.792 70.4285 118.379 71.197C117.628 70.5171 116.916 69.7683 116.224 68.9998C117.658 68.6057 134.445 63.9551 134.949 63.8172V63.827ZM115.582 69.7782C116.244 70.5073 116.926 71.2167 117.668 71.8965C117.648 72.2906 117.262 82.4292 117.163 84.9516C116.412 83.9367 114.959 81.9859 114.959 81.9859C115.097 79.2074 114.85 73.6996 115.582 69.7683V69.7782Z" fill="#151B21"/>
<path d="M153.98 88.8234C153.921 88.6362 153.713 88.5279 153.525 88.587L152.922 88.784C152.804 88.5771 152.646 88.3899 152.408 88.2323C151.637 87.5524 150.53 86.7937 149.383 87.0105C148.454 87.1879 147.228 87.6805 146.378 87.9071L140.505 89.7496C135.651 91.2669 127.663 93.7696 119.961 96.1835C117.43 95.346 114.88 94.548 112.378 93.6513C110.609 92.9715 108.543 92.4591 107.069 91.3064C106.852 90.8925 106.654 90.0945 106.516 89.5624C104.034 78.8129 103.075 67.6102 99.5953 57.0676C97.5983 51.4416 91.2413 50.279 86.1499 48.8109C88.5819 46.9586 92.141 47.3724 94.9784 46.1112C98.3299 44.9388 101.256 42.4854 102.789 39.3029C104.232 39.4113 110.836 39.7266 112.784 36.5835C113.921 34.7509 108.058 24.0605 108.058 24.0605C108.058 24.0605 112.724 25.2921 114.474 22.2969C116.214 19.3016 111.726 7.31064 106.674 3.16258C100.426 -1.98062 91.9334 0.699365 84.9042 0.788041C76.1646 0.896423 69.8472 -0.482979 66.8121 4.72919C65.5961 6.80815 63.5595 15.39 60.9891 21.6958C58.468 27.8933 54.2663 30.0412 55.0869 32.731C56.6489 37.8841 69.8472 39.9828 71.7355 40.2586C71.6861 42.6923 71.7059 45.1358 71.8838 47.5596C70.3514 47.7961 68.8191 48.0227 67.2867 48.2592C67.3658 48.1015 67.1878 47.9045 67.0197 48.0326C66.911 48.1311 66.822 48.2395 66.7232 48.3478C62.2743 49.0277 57.8353 49.7765 53.4458 50.9096C52.9811 51.0278 52.5164 51.1559 52.0419 51.2939C48.2653 51.6387 44.4689 51.9934 40.7121 52.6338C37.8451 53.1856 34.7407 53.7374 32.1011 55.0872C31.9726 55.0675 31.8638 55.1266 31.8144 55.2251C30.9246 55.7079 30.0843 56.2893 29.3329 57.0085C26.3077 59.9053 24.5776 63.7282 22.7189 67.2752C20.8603 70.8419 18.7149 74.251 16.3224 77.4926C13.9398 80.7441 11.3002 83.7788 8.51221 86.7051C5.75391 89.6412 2.8572 92.6759 1.22595 96.5481C-2.87689 105.859 3.90516 112.628 12.4173 115.338C15.2943 116.323 18.2305 117.022 21.0679 117.919C22.0862 119.614 22.4322 121.663 22.6201 123.663C23.0254 128.156 22.6003 132.688 22.7585 137.221C22.8969 140.561 23.0748 144.748 26.0309 147.044C30.5489 150.709 36.5598 151.586 41.6612 154.089C43.4704 154.907 45.1906 155.921 46.7428 157.143C46.901 157.705 47.0592 158.266 47.2173 158.828L47.6721 160.286C48.1368 161.912 49.6296 163.153 51.0631 163.843C56.7775 166.375 63.1443 166.375 69.2343 166.701C73.2976 166.858 77.351 166.829 81.4143 166.878C81.4341 166.878 81.444 166.858 81.4637 166.858C82.1261 168.385 82.7885 169.922 83.4806 171.41C87.3758 180.426 91.1029 189.51 94.7708 198.624C94.3654 198.841 94.4742 199.57 95.0278 199.55H95.1366C95.8484 201.314 96.5602 203.077 97.2621 204.841C97.3709 205.117 97.6576 205.284 97.9542 205.235C98.4782 205.146 98.9923 205.038 99.5064 204.94L101.286 210.999C101.335 213.846 101.899 218.211 102.393 221.591C102.373 221.739 102.423 221.886 102.551 222.005C102.591 222.044 102.621 222.074 102.66 222.093H102.69C102.69 222.093 102.769 222.133 102.808 222.143C108.8 224.32 115.75 222.251 120.337 218.064C120.525 217.896 120.574 217.62 120.436 217.403C120.09 216.852 119.734 216.27 119.368 215.689C121.602 216.3 123.856 216.773 126.14 217.147C128.74 217.571 131.36 217.857 134 217.995C134.346 218.142 134.85 217.827 134.662 217.364C134.356 216.694 133.842 216.044 133.456 215.433C132.685 214.3 130.639 211.373 129.798 210.181L131.37 199.727C131.37 199.727 131.37 199.649 131.37 199.609C131.627 199.58 131.894 199.56 132.151 199.53C132.201 199.53 132.26 199.53 132.309 199.511H132.319C132.319 199.511 132.369 199.481 132.398 199.461C132.408 199.461 132.428 199.451 132.438 199.442C132.458 199.422 132.477 199.412 132.487 199.382C132.527 199.333 132.566 199.264 132.576 199.195C132.576 199.195 132.912 196.121 133.16 193.894C133.496 193.845 133.515 193.372 133.229 193.264C133.802 188.012 134.524 181.49 134.524 181.49C135.137 175.657 136.719 160.562 137.312 154.916C137.46 153.468 137.865 149.665 138.004 148.276C139.704 140.679 131.825 136.423 126.822 132.422C126.447 132.117 125.982 132.708 126.348 133.004L129.729 135.92C138.805 143.418 137.035 144.009 136.106 154.798C135.542 160.503 134.079 175.479 133.496 181.391L132.388 193.234C128.325 193.155 124.262 192.88 120.228 192.397C120.05 192.377 119.862 192.456 119.764 192.614C119.556 192.939 119.348 193.264 119.141 193.579C119.042 193.136 118.943 192.683 118.943 192.683C118.913 192.495 118.765 192.338 118.567 192.298C117.559 192.091 116.59 191.875 115.522 191.796C115.344 191.786 115.176 191.894 115.127 192.082C115.077 192.288 115.216 192.505 115.423 192.545L118.033 193.195C118.122 193.638 118.389 194.939 118.389 194.939C118.459 195.343 119.032 195.481 119.279 195.146C119.734 194.574 120.09 193.993 120.436 193.402C124.39 193.776 128.355 193.944 132.319 193.924L131.835 199.097C126.14 199.481 120.09 199.363 114.741 197.264C114.939 192.495 114.89 187.727 114.85 182.958C114.751 175.637 114.484 160.887 114.336 153.567C114.375 152.818 113.871 151.99 113.199 151.645L111.548 150.788L108.266 149.123C106.753 148.374 103.985 146.955 102.502 146.226C102.443 146.197 102.364 146.157 102.275 146.118C101.256 143.379 98.9824 141.349 96.5701 139.792C96.4416 139.694 96.3131 139.595 96.1746 139.507C97.8652 139.861 99.6744 139.507 101.286 138.915L104.222 138.009C107.959 136.846 117.964 133.654 121.81 132.422C125.636 131.181 135.681 127.949 139.378 126.787L142.314 125.86C143.303 125.575 144.42 125.19 145.152 124.402C145.953 123.663 146.368 122.53 146.526 121.515L147.159 118.51C147.979 114.638 150.115 104.519 150.955 100.509L152.22 94.5085L152.853 91.5034C153.002 90.8827 153.189 90.1733 153.12 89.5328C153.348 89.4639 153.555 89.3949 153.733 89.3358C153.921 89.2767 154.03 89.0698 153.97 88.8826L153.98 88.8234ZM87.5043 25.6665C93.0011 23.3905 95.0377 18.5823 95.7792 15.6462C95.4628 22.287 91.7159 24.8389 86.2982 26.1395C86.6936 25.9917 87.0891 25.834 87.4944 25.6665H87.5043ZM71.953 48.2099C72.1705 50.6633 72.5759 53.0969 73.2679 55.4715C73.347 55.7671 73.8018 55.6291 73.7227 55.3434C72.1211 48.8996 72.655 42.1997 73.1888 35.6376C73.2482 34.9282 72.3782 34.7607 72.042 35.2041C70.3416 34.5637 68.8092 33.4799 67.8403 31.933C66.6342 30.0018 66.2387 27.3612 67.3163 25.3118C67.9787 24.2182 69.4617 23.7846 70.7074 24.0408C72.0321 24.2871 73.0603 25.2133 73.8413 26.307C74.2566 27.0164 74.5334 27.7258 74.6817 28.2086C74.6817 28.2283 74.7212 28.2578 74.7805 28.2874C74.8497 28.4253 74.9882 28.5337 75.1562 28.5534C77.7959 28.8392 80.4158 28.8096 83.0554 28.5534C86.6739 28.179 90.579 27.3317 93.5844 25.0655C96.58 22.5432 97.4599 18.4641 97.0545 14.7101C98.32 16.8384 100.91 20.7302 104.222 23.292C104.034 25.7749 103.856 28.2578 103.629 30.7211C103.135 37.352 101.444 42.8204 94.6917 45.3427C91.8543 46.663 88.2458 46.2393 85.6951 48.3084C85.438 48.604 85.2107 48.9095 85.0031 49.2346C84.746 48.8306 84.4395 48.4464 84.0441 48.1212C83.9353 48.0326 83.7673 48.0424 83.6684 48.1606C83.5695 48.2789 83.5893 48.4562 83.7178 48.5449C84.1133 48.8996 84.4198 49.3331 84.6867 49.7962C83.4212 52.0722 83.1543 54.8212 82.917 57.3632C82.917 57.5012 83.0159 57.6292 83.1543 57.6391C83.3026 57.649 83.4311 57.5307 83.441 57.3829C83.6783 55.1069 83.9749 52.5747 85.0228 50.4859C85.4974 51.6091 85.7248 52.8703 85.9027 54.0231C86.1696 56.0528 86.1301 58.1219 85.7544 60.1319C84.7559 67.0387 77.9541 70.4183 72.5462 65.4327C69.0761 62.3586 65.8136 52.3284 69.3826 48.6336C70.2328 48.4956 71.0929 48.3478 71.9432 48.2099H71.953ZM53.7127 51.7865C57.7463 50.683 61.8788 49.9046 66.0311 49.1952C63.6782 52.6733 64.5976 57.8165 65.8531 61.5704C68.3346 68.7827 75.7889 73.65 83.2136 70.103C88.8192 67.2358 90.2231 59.9348 89.0367 54.2497C88.7698 53.0969 88.3941 51.9343 87.6921 50.9293C87.6229 50.8308 87.4944 50.8012 87.3857 50.8603C87.267 50.9293 87.2275 51.0771 87.3066 51.1953C90.0649 56.7819 88.6313 66.0633 82.6995 69.0783C75.9966 72.2312 69.175 67.6693 66.8517 61.1763C65.4972 57.58 64.4097 52.4959 66.6638 49.077C67.435 48.9489 68.2061 48.8208 68.9871 48.6927C68.305 49.3627 67.9491 50.2889 67.7513 51.1855C66.8813 56.3385 68.5324 62.0236 72.1409 65.8564C77.9046 71.3346 85.3787 67.7186 86.4465 60.26C87.0001 57.1366 86.8913 53.8556 85.8137 50.8505C85.6852 50.5253 85.5468 50.2002 85.3886 49.875C85.5468 49.6189 85.7248 49.3725 85.9126 49.1361C90.2527 50.6436 95.3936 51.4022 97.9542 55.5897C99.6744 58.5062 100.06 62.0335 100.841 65.3243C102.492 73.4825 103.58 81.6604 105.31 89.8383C105.527 90.6462 105.586 91.2078 106.041 92.0256C107.673 93.6021 109.986 93.9863 112.022 94.7746C114.227 95.4544 116.452 96.0456 118.696 96.5678C112.626 98.4694 106.862 100.272 103.105 101.445C101.197 101.997 99.6744 103.77 99.5064 105.741L99.2987 107.16C99.1702 107.12 99.0417 107.081 98.9231 107.041C97.6477 106.647 96.7085 106.362 96.0857 104.608C95.9473 103.948 95.8286 103.317 95.7495 102.765C94.8993 98.3709 94.3852 93.9272 94.5335 89.4836C95.0773 80.5273 95.9967 71.4233 94.4544 62.4966C94.4248 62.3291 94.2666 62.2108 94.0985 62.2404C93.9304 62.2699 93.8019 62.4276 93.8316 62.5951C95.1069 71.5316 94.0194 80.4978 93.3669 89.4442C93.1791 93.9962 93.7031 98.5482 94.5335 102.992C94.9982 106.677 97.5093 112.766 91.6467 113.042C91.6467 113.042 91.6368 113.042 91.6269 113.042C91.2117 112.884 90.7965 112.736 90.3714 112.608C90.5889 112.559 90.8064 112.52 91.0238 112.451C91.8444 112.145 92.7342 111.82 93.1198 110.923C93.3768 110.372 92.8232 109.78 92.3387 109.721C90.312 109.337 88.2557 109.564 86.2191 109.327C84.6274 109.17 80.653 108.431 79.0218 108.204C76.5304 107.79 74.0292 107.376 71.5378 106.933C71.785 106.421 72.0519 105.928 72.3287 105.445C72.5858 105.11 72.042 104.726 71.8047 105.071C71.4587 105.623 71.1424 106.204 70.8458 106.805C67.1779 106.145 63.5299 105.416 59.9411 104.48C57.6771 103.839 55.3242 103.199 53.3864 101.888C52.8031 101.465 52.3681 101.061 52.1902 100.341C51.5377 97.3659 51.9628 93.9765 52.21 90.9024C52.8723 84.498 53.9401 78.1035 55.0375 71.7287C55.0671 71.5514 54.9584 71.3839 54.7804 71.3444C54.6025 71.305 54.4245 71.4134 54.385 71.6006C52.9811 77.936 51.7354 84.301 50.9939 90.7842C50.7171 94.1144 50.2327 97.3265 50.9544 100.696C52.2297 105.278 64.9634 106.677 69.2343 107.583C69.6199 107.652 70.0153 107.702 70.4009 107.771C68.5719 112.007 68.0183 117.042 69.4913 121.367C62.7983 120.668 56.125 119.752 49.5802 118.224C46.5648 117.515 43.5693 116.668 40.8011 115.397C38.8337 114.451 36.7773 113.318 35.8184 111.337C34.6122 107.78 34.9879 103.829 35.0769 100.056C35.4229 93.878 36.2237 87.7101 37.242 81.5914C38.6162 73.9949 39.9904 66.2899 42.9365 59.1466C44.6864 54.6931 49.3923 53.0181 53.7226 51.7569L53.7127 51.7865ZM86.7529 115.308C90.8657 116.155 94.6324 118.027 97.2028 121.397C97.0941 122.136 96.9952 122.875 96.8865 123.614C96.4811 122.944 95.8286 122.441 95.2256 121.919C92.6057 119.791 89.4618 118.51 86.2487 117.623C85.8434 117.485 85.6061 118.116 86.0213 118.264C88.1074 119.013 90.1835 119.653 92.0125 120.776C93.357 121.624 94.751 122.501 95.799 123.683C96.3625 124.274 96.6986 125.259 95.7891 125.506C95.4332 125.535 94.9092 125.338 94.4445 125.121C91.5281 123.634 88.661 121.752 85.3491 121.17C84.9932 121.072 84.746 121.584 85.0821 121.781C85.9719 122.136 90.4702 125.88 88.0975 126.294C87.4351 126.264 86.7727 125.722 86.1103 125.338C83.3916 123.791 80.485 122.254 77.2917 122.116C75.4133 121.959 73.5447 121.781 71.6663 121.604C71.1325 117.16 71.5774 112.569 73.436 108.48C73.4657 108.411 73.4755 108.342 73.4854 108.273C75.2848 108.549 77.0742 108.805 78.8735 109.061C82.6699 109.662 87.2077 110.273 91.0337 110.125C91.7653 110.165 92.8627 110.204 92.6156 110.766C91.9729 111.899 90.2626 112.175 88.9279 112.234C88.404 112.106 87.8701 112.007 87.3362 111.909C86.6936 111.81 86.5354 112.766 87.1682 112.884C91.1919 113.554 94.84 115.456 97.6576 118.402C97.5884 118.865 97.5192 119.318 97.4599 119.781C96.1944 118.49 94.7609 117.328 93.1296 116.51C91.1623 115.495 89.0268 114.983 86.9309 114.569C86.4563 114.47 86.2982 115.209 86.7727 115.308H86.7529ZM86.7134 122.284C88.2458 122.816 89.7188 123.535 91.1524 124.333C92.4475 124.964 95.1366 127.053 96.5108 126.225C96.1351 128.826 95.7594 131.417 95.4035 134.019L76.5601 122.668C76.7875 122.688 77.0247 122.707 77.2521 122.727C80.3466 122.767 83.184 124.274 85.9027 125.713C86.6244 126.087 87.2473 126.649 88.1173 126.678C90.4504 126.195 88.3545 123.791 86.7233 122.294L86.7134 122.284ZM71.0237 121.555C70.8458 121.535 70.6678 121.525 70.4899 121.505C68.8289 117.298 69.2837 112.175 71.0732 107.918C71.4488 107.977 71.8344 108.037 72.2101 108.096C71.3005 110.441 70.7864 112.924 70.648 115.406C70.5393 117.476 70.6876 119.535 71.0138 121.565L71.0237 121.555ZM93.4065 113.86C93.4065 113.86 93.3175 113.82 93.2779 113.8C93.3175 113.8 93.3471 113.8 93.3867 113.8C96.8271 113.13 96.9557 110.086 96.5108 107.071C97.1336 107.564 97.8454 107.78 98.6067 108.017C98.7748 108.066 98.9527 108.125 99.1307 108.184L98.8143 110.332C98.4881 112.559 98.1618 114.796 97.8356 117.022C96.5009 115.801 95.0377 114.687 93.4065 113.869V113.86ZM43.7275 120.205C46.3276 122.855 48.3839 125.9 50.1239 129.132C50.1338 129.289 50.203 129.437 50.3513 129.555C51.2609 131.279 52.0715 133.053 52.8328 134.866C50.9346 138.137 46.9109 140.285 43.1343 140.157C41.0977 134.482 38.2603 128.964 34.2267 124.648C35.502 122.008 39.0018 118.668 42.1357 118.885C42.6795 119.318 43.2134 119.752 43.7275 120.205ZM42.1753 117.279C42.3829 117.357 42.6004 117.426 42.808 117.505C42.7586 117.564 42.719 117.633 42.6993 117.702C42.5213 117.564 42.3532 117.416 42.1753 117.279ZM43.6879 117.791C46.5648 118.737 49.4912 119.466 52.4571 120.037C51.6168 120.195 50.7072 120.422 49.7779 120.757C46.031 122.136 44.0636 118.559 43.6879 117.791ZM22.709 91.9763C22.7387 92.1734 22.7684 92.3606 22.798 92.5577C22.798 92.5577 23.9844 101.79 24.6072 106.637C22.2543 107.13 20.6724 107.603 20.1386 107.771C16.3126 106.775 12.6348 105.465 10.3313 102.233C6.90073 95.3953 18.191 93.5134 22.6794 91.9862H22.7189L22.709 91.9763ZM18.7347 77.0591C24.9236 75.0294 31.3201 73.5712 37.7264 72.3494C37.7264 72.5662 37.7264 72.783 37.7264 72.9899C37.1234 75.7979 36.6093 78.6159 36.0853 81.4141C35.68 83.7689 35.324 86.1336 35.0077 88.5081C31.0927 89.2274 27.1974 90.0649 23.3319 91.0305C22.6991 86.1927 22.363 80.547 18.7446 77.0493L18.7347 77.0591ZM24.7357 107.613C24.8049 108.174 24.8643 108.638 24.9137 108.963C23.9844 108.707 23.0254 108.47 22.0664 108.243C22.7782 108.056 23.6779 107.839 24.7456 107.613H24.7357ZM23.5296 92.4591C23.4901 92.2325 23.4604 92.0059 23.4307 91.7793C27.2271 90.7546 31.0729 89.8678 34.9286 89.0993C34.4442 92.7252 34.0586 96.3609 33.8411 100.016C33.7917 101.672 33.7027 103.366 33.6928 105.061L27.3952 106.105C26.6438 106.233 25.9419 106.362 25.2894 106.49C24.6764 101.622 23.5296 92.4591 23.5296 92.4591ZM27.5534 107.081L33.7027 106.056C33.7521 108.027 33.9795 109.987 34.632 111.869C34.8396 112.323 35.1065 112.727 35.4031 113.111C32.8623 111.771 30.2029 110.618 27.4644 109.751C26.8712 109.534 26.2484 109.337 25.6255 109.16C25.586 108.835 25.5069 108.243 25.4179 107.465C26.0803 107.327 26.7921 107.199 27.5632 107.071L27.5534 107.081ZM40.8406 53.2644C43.7373 52.7422 46.6736 52.3974 49.6098 52.0919C46.3276 53.3728 43.2529 55.3729 41.9479 58.7328C40.5836 61.9941 39.5554 65.3638 38.6953 68.7925C38.9523 63.3341 38.112 57.6292 33.0699 55.4222C35.4822 54.299 38.2603 53.7866 40.8307 53.2644H40.8406ZM23.5098 67.6496C25.3487 64.0533 27.0195 60.3191 29.8767 57.5406C30.5984 56.841 31.3992 56.2794 32.2593 55.8065C35.3339 57.5209 37.0047 60.8117 37.2914 64.2405C37.5781 66.6939 37.6968 69.1867 37.7067 71.6893C34.4639 72.1918 31.2311 72.7731 28.018 73.4431C24.8741 74.123 21.7698 74.8521 18.6853 75.7585C20.4549 73.1574 22.0763 70.4577 23.4999 67.6496H23.5098ZM7.37527 111.8C1.81913 108.628 -0.494278 102.854 2.17504 96.9126C3.69754 93.2671 6.4855 90.2817 9.2438 87.3455C12.0416 84.4093 14.711 81.3156 17.1035 78.0247C17.2814 77.7882 17.4495 77.532 17.6176 77.2956C17.7263 77.335 17.8449 77.3448 17.9833 77.2956C21.6215 80.7736 21.9577 86.3405 22.6102 91.2078C22.5706 91.2177 22.5212 91.2275 22.4816 91.2374C17.1924 92.8138 5.72425 94.8435 9.50084 102.696C12.1998 106.618 16.619 107.928 21.0679 109.071C18.8533 110.263 17.4001 113.387 17.7658 115.771C14.1672 114.776 10.5982 113.791 7.37527 111.8ZM18.7051 116.027C18.6161 113.475 20.2968 110.303 22.8178 109.514C24.3007 109.899 25.754 110.293 27.1184 110.795C31.9726 112.431 36.6785 114.815 40.8209 117.87C37.7363 118.096 34.4639 121.19 33.5939 123.969C31.0334 121.377 28.0081 119.259 24.4194 117.88C22.541 117.131 20.623 116.569 18.7051 116.027ZM35.759 150.542C32.1999 149.084 28.2948 147.96 25.7639 144.945C23.2132 140.689 24.1524 135.191 23.8954 130.373C23.7273 126.343 23.9646 121.781 21.9082 118.165C22.6102 118.402 23.3121 118.648 24.0041 118.924C39.0413 124.954 42.551 141.852 46.4561 156.059C43.332 153.508 39.4763 151.99 35.759 150.542ZM48.9672 159.922C47.4645 155.626 46.4561 151.163 45.1906 146.758C44.6765 144.817 44.0834 142.847 43.4012 140.886C47.2569 141.31 51.4586 139.181 53.2085 135.723C54.9485 139.989 56.4216 144.394 58.0133 148.63C58.0627 148.758 58.1714 148.847 58.3 148.887C59.7631 154.769 54.9188 160.168 48.9672 159.922ZM68.2259 165.558C62.6697 165.124 52.378 164.897 49.3528 160.73C55.7097 161.646 61.2461 155.153 58.8833 149.074C61.9975 150.483 65.2797 151.635 68.473 152.956C70.1537 156.789 70.3712 161.656 68.2654 165.361C68.2259 165.42 68.2358 165.489 68.2358 165.558H68.2259ZM69.2936 165.656C69.1947 165.646 69.0662 165.636 68.9674 165.627C71.3104 161.971 71.0633 157.045 69.1354 153.242C71.7751 154.365 74.3258 155.616 76.6293 157.281C78.4781 160.06 79.8819 163.153 81.2363 166.257C79.6644 166.178 69.2936 165.646 69.2936 165.646V165.656ZM100.169 204.782C104.133 203.944 107.989 202.654 111.647 200.969C111.845 201.668 113.604 207.826 113.604 207.826C114.207 208.822 114.801 209.827 115.394 210.832C115.077 212.851 114.375 215.453 112.408 216.379C111.439 216.743 110.213 216.635 109.155 216.615C108.098 216.566 107.03 216.458 105.972 216.329L102.215 210.605C102.017 210.033 100.604 206.053 100.159 204.792L100.169 204.782ZM103.362 221.266C102.937 218.428 102.601 215.521 102.383 212.644L105.28 217.059C105.359 217.177 105.488 217.265 105.636 217.275C108.009 217.403 110.431 217.857 112.734 217.088C113.931 216.517 114.642 215.403 115.107 214.319C115.473 213.433 115.71 212.516 115.849 211.58C117.015 213.551 118.182 215.531 119.319 217.522C115.077 221.256 108.809 223.079 103.362 221.256V221.266ZM115.918 198.634C116.827 198.9 117.737 199.107 118.666 199.284C122.542 199.944 126.486 199.984 130.391 199.658C130.263 200.713 129.136 210.191 129.136 210.191C129.106 210.437 129.324 210.566 129.521 210.546C129.769 210.95 130.105 211.502 130.48 212.122C125.211 212.043 119.764 210.733 115.433 207.679C115.542 204.673 115.809 200.2 115.908 198.644L115.918 198.634ZM115.404 208.91C115.404 208.782 115.404 208.634 115.414 208.496C116.382 209.147 117.401 209.649 118.439 210.122C122.285 211.905 126.546 212.625 130.777 212.615C130.777 212.615 130.777 212.615 130.787 212.615C131.538 213.846 132.339 215.177 132.744 215.856C132.912 216.152 133.16 216.566 133.377 216.96C128.523 216.783 123.649 216.142 118.943 214.95C117.727 212.999 116.452 210.969 115.295 209.216C115.364 209.137 115.404 209.038 115.404 208.92V208.91ZM114.603 198.2C114.721 198.24 114.83 198.279 114.949 198.318C114.87 199.649 114.544 204.752 114.445 207.935C114.385 207.846 114.316 207.748 114.257 207.659C114.257 207.659 112.645 200.989 112.546 200.555C113.258 200.21 113.96 199.855 114.652 199.491C114.662 199.491 114.662 199.471 114.672 199.461C114.731 199.422 114.771 199.373 114.791 199.314C114.791 199.294 114.801 199.284 114.81 199.264C114.82 199.215 114.83 199.156 114.81 199.107C114.741 198.801 114.672 198.506 114.603 198.2ZM111.983 199.964C111.983 199.964 111.914 199.964 111.874 199.964C111.795 199.984 111.726 200.033 111.667 200.092C107.386 201.925 102.868 203.186 98.2706 203.846C97.6675 202.378 97.0545 200.92 96.4515 199.451L97.1435 199.422C97.6576 200.102 99.1603 202.102 99.1603 202.102C99.3086 202.309 99.6645 202.24 99.7041 201.984C100.001 200.663 100.465 199.343 100.94 198.042C104.974 197.057 108.968 196.092 112.893 194.693C112.942 194.673 112.972 194.643 113.011 194.624C113.377 196.072 113.723 197.53 114.089 198.979C113.397 199.314 112.685 199.639 111.973 199.954L111.983 199.964ZM103.006 147.192C105.339 148.443 108.76 150.315 111.103 151.586C111.914 152.118 113.416 152.453 113.318 153.557C113.357 160.877 113.486 175.608 113.585 182.938C113.664 187.106 113.743 191.274 113.97 195.441C111.568 185.017 109.126 174.603 106.674 164.198C105.31 158.454 104.015 152.769 102.581 146.965C102.739 147.054 102.887 147.133 103.016 147.192H103.006ZM97.4401 138.344C96.7283 138.334 96.0264 138.196 95.364 137.881C89.3827 134.393 82.9763 130.343 77.005 126.836C76.5304 126.589 76.2042 127.21 76.5898 127.496C80.0401 129.713 83.4805 131.94 86.9507 134.117C87.5636 134.482 88.4237 135.033 89.3432 135.625C90.3219 136.344 91.3106 137.162 92.2893 137.93L95.8385 140.699C97.015 141.595 98.2607 142.334 99.2098 143.458C100.159 144.502 100.89 145.734 101.325 147.074C102.779 152.778 104.173 158.661 105.596 164.434C107.979 174.208 110.371 183.982 112.804 193.747C112.724 193.737 112.645 193.737 112.556 193.766C110.609 194.446 108.572 194.978 106.545 195.491C104.667 195.964 101.909 196.604 100.485 196.909C100.218 196.909 99.971 197.077 99.9117 197.343C99.6448 198.565 99.3778 199.786 99.2197 201.038L97.796 198.653C97.7169 198.515 97.5686 198.437 97.4006 198.437H97.3709L96.056 198.486C92.23 189.293 88.3446 180.12 84.2912 171.026C81.9877 166.237 80.1686 161.183 77.1137 156.798C71.6268 152.788 64.8645 151.163 58.7844 148.286C57.5288 144.177 56.1843 140.088 54.6025 136.078C53.7028 133.703 52.6746 131.319 51.4981 129.013C52.556 126.688 54.4937 124.747 56.6094 123.308C56.9356 123.092 56.6193 122.579 56.2831 122.776C54.4245 123.811 52.7142 125.19 51.3795 126.875C51.2609 127.072 51.0236 127.358 50.7863 127.683C49.6593 125.634 48.3839 123.673 46.9109 121.88C47.2865 121.978 47.6919 122.037 48.1269 122.037C48.7398 122.037 49.4022 121.929 50.1239 121.663C53.3271 120.491 56.4216 120.727 56.4512 120.727C56.4809 120.727 56.5204 120.727 56.5501 120.727C60.9199 121.387 65.3489 121.781 69.7682 122.126C69.9461 122.392 70.2822 122.363 70.4701 122.185C70.6975 122.205 70.9249 122.225 71.1621 122.235C71.2017 122.441 71.2313 122.658 71.2709 122.865C71.3401 123.22 71.8838 123.111 71.8245 122.767C71.7949 122.609 71.785 122.441 71.7652 122.284C72.9812 122.382 74.1972 122.471 75.4034 122.57C75.3737 122.717 75.4232 122.875 75.5813 122.983L95.5221 134.994C95.7495 135.142 96.0857 134.994 96.1153 134.718C96.8173 130.334 97.4796 125.939 98.142 121.545C98.1519 121.545 98.1717 121.535 98.1816 121.525C98.4287 121.308 98.4584 120.944 98.2804 120.678C98.3991 119.919 98.5078 119.17 98.6265 118.412C98.7352 118.254 98.7748 118.057 98.7056 117.88C99.0812 115.406 99.447 112.933 99.8227 110.46L100.277 107.426L100.505 105.908C100.663 104.263 101.83 102.903 103.402 102.42C112.23 99.6123 131.726 93.405 140.772 90.528L146.635 88.6658C147.9 88.3505 149.69 87.3554 150.787 87.9859C151.153 88.252 151.785 88.587 152.161 89.0402C143.323 91.868 108.869 102.883 104.469 104.302C103.52 104.677 102.759 105.524 102.532 106.539L100.821 117.239C100.821 117.239 97.539 137.891 97.4599 138.354L97.4401 138.344ZM151.509 94.2721L150.263 100.272C149.442 104.233 147.317 114.451 146.516 118.293L145.893 121.298C145.725 122.294 145.429 123.161 144.707 123.86C144.005 124.579 143.095 124.846 142.126 125.131L139.18 126.028C135.424 127.191 125.399 130.186 121.504 131.348C117.668 132.511 107.544 135.575 103.846 136.718L100.91 137.635C100.129 137.92 99.2889 138.167 98.4386 138.275C98.5672 137.398 101.622 117.347 101.622 117.347L103.243 106.687C103.402 105.928 103.975 105.278 104.716 104.982C109.175 103.544 143.619 92.4986 152.408 89.6806C152.408 89.72 152.418 89.7595 152.408 89.8087C152.28 90.6659 151.627 93.3952 151.489 94.2721H151.509Z" fill="#151B21"/>
<path d="M100.06 32.3766C101.691 32.3471 102.343 28.2877 100.702 28.2778C99.0612 28.268 98.4285 32.4062 100.06 32.3766Z" fill="#151B21"/>
<path d="M91.0932 40.8697C91.4491 40.712 91.2217 40.1504 90.8559 40.2884C89.6003 40.7416 88.1965 40.7317 86.9607 40.3179C85.715 39.914 84.667 39.0765 83.9453 38.0222C83.7377 37.7168 83.3027 37.6478 83.016 37.8843C82.7392 38.101 82.6898 38.505 82.9172 38.7809C84.7857 41.2145 88.3151 42.1407 91.0932 40.8697Z" fill="#151B21"/>
<path d="M86.5157 33.5885C88.2854 33.5097 88.7995 29.4996 87.1583 29.4897C85.5172 29.4897 84.7362 33.6575 86.5157 33.5885Z" fill="#151B21"/>
<path d="M95.6011 37.9041C96.8468 37.1848 98.0233 36.3769 98.2704 34.83C98.3199 33.2141 96.8764 32.4751 95.6703 31.884C95.2749 31.6771 94.9387 32.2781 95.3243 32.5047L95.3539 32.5244L96.0954 32.9776C98.3495 34.4359 96.9358 35.8941 95.0969 36.7217C94.7311 36.8498 94.5433 37.2735 94.7311 37.6282C94.8893 37.9435 95.2847 38.0716 95.6011 37.9041Z" fill="#151B21"/>
<path d="M69.5308 26.1101C69.0661 25.9524 68.7992 26.6815 69.2639 26.849C69.6791 27.0067 70.124 27.3318 70.4799 27.6964C71.6267 28.7506 71.8244 30.3468 71.8145 31.8149C71.7849 32.6918 73.1294 32.6918 73.0998 31.8149C73.0306 29.4305 71.9628 26.9081 69.5308 26.1002V26.1101Z" fill="#151B21"/>
<path d="M96.6094 76.1134C97.2323 70.7239 97.1631 65.2654 96.2041 59.9054C96.0756 59.2354 95.0672 59.4719 95.2451 60.1222C96.5007 65.3146 96.906 70.7633 96.6094 76.1134Z" fill="#151B21"/>
</g>
<defs>
<clipPath id="clip0_9_1831">
<rect width="154" height="223" fill="white"/>
</clipPath>
</defs>
</svg>
