<svg width="178" height="213" viewBox="0 0 178 213" fill="none" xmlns="http://www.w3.org/2000/svg">
<g clip-path="url(#clip0_9_1997)">
<path d="M104.913 60.7184C105.04 58.1828 105.569 55.2655 108.049 53.9568C108.093 53.937 108.14 53.9261 108.188 53.9245C108.236 53.923 108.284 53.9308 108.329 53.9477C108.374 53.9646 108.415 53.9902 108.45 54.0229C108.485 54.0557 108.513 54.0949 108.533 54.1385C108.553 54.1861 108.564 54.2374 108.564 54.2892C108.564 54.341 108.554 54.3922 108.533 54.4398C108.513 54.4874 108.483 54.5305 108.445 54.5662C108.407 54.6019 108.363 54.6295 108.314 54.6475C106.344 55.9017 106.062 58.5736 106.098 60.7366C106.098 60.8932 106.036 61.0435 105.924 61.1542C105.813 61.265 105.663 61.3273 105.505 61.3273C105.348 61.3273 105.197 61.265 105.086 61.1542C104.975 61.0435 104.913 60.8932 104.913 60.7366V60.7184Z" fill="#18212A"/>
<path d="M101.575 88.4827C96.7054 92.6088 92.839 97.8072 89.2644 103.151C75.3855 124.881 70.434 130.307 46.2143 140.485C46.1463 140.511 46.0712 140.51 46.0037 140.483C45.9363 140.456 45.8813 140.405 45.8495 140.34C45.8241 140.272 45.825 140.197 45.8519 140.13C45.8789 140.063 45.9301 140.008 45.9955 139.976C70.0328 129.643 74.7837 124.299 88.4073 102.588C91.9545 97.1892 95.83 91.8726 100.818 87.5739C100.939 87.4786 101.093 87.4343 101.247 87.4505C101.401 87.4668 101.542 87.5421 101.641 87.6607C101.74 87.7792 101.788 87.9316 101.776 88.0851C101.763 88.2387 101.691 88.3813 101.575 88.4827Z" fill="#18212A"/>
<path d="M115.354 73.7236C128.576 73.7236 140.212 78.6039 148.245 89.3462C157.458 101.964 164.333 116.122 168.544 131.152C169.246 134.26 172.492 144.593 168.024 145.775C167.549 145.829 167.068 145.829 166.592 145.775H165.444C155.433 145.589 145.42 146.053 135.47 147.165C130.181 147.383 120.086 149.992 118.427 142.857C118.412 142.804 118.407 142.748 118.414 142.692C118.421 142.637 118.44 142.584 118.468 142.535C118.496 142.487 118.533 142.445 118.578 142.411C118.622 142.378 118.673 142.353 118.728 142.339C118.78 142.324 118.834 142.319 118.888 142.325C118.942 142.331 118.994 142.348 119.042 142.374C119.089 142.4 119.131 142.436 119.165 142.478C119.199 142.52 119.224 142.569 119.238 142.621C119.414 143.302 119.738 143.936 120.187 144.478C120.636 145.019 121.2 145.456 121.837 145.757C126.077 147.211 130.892 145.757 135.278 145.448C145.959 143.901 156.751 143.248 167.541 143.494C167.934 142.581 168.073 141.579 167.942 140.594C167.69 137.605 167.138 134.649 166.292 131.77C162.153 117.028 155.513 103.1 146.659 90.5913C139.209 80.2943 127.938 75.2141 115.326 74.9323C115.248 74.93 115.172 74.9124 115.101 74.8805C115.03 74.8486 114.966 74.8032 114.912 74.7466C114.859 74.6901 114.817 74.6235 114.79 74.5509C114.762 74.4783 114.749 74.4011 114.752 74.3235C114.759 74.1692 114.825 74.0234 114.937 73.9168C115.05 73.8101 115.199 73.7508 115.354 73.7509V73.7236Z" fill="#18212A"/>
<path d="M94.9913 77.8768C96.4238 76.9719 97.5837 75.6974 98.3479 74.1885C99.1121 72.6796 99.4521 70.9927 99.3319 69.3067C99.3269 69.1506 99.3831 68.9986 99.4887 68.8832C99.5943 68.7678 99.7408 68.698 99.8973 68.6886C99.9801 68.6848 100.063 68.6982 100.14 68.7278C100.218 68.7574 100.288 68.8025 100.347 68.8606C100.406 68.9186 100.453 68.9882 100.484 69.0649C100.514 69.1417 100.529 69.224 100.526 69.3067C100.476 71.1099 99.9425 72.8669 98.9803 74.3948C98.0181 75.9228 96.6627 77.1659 95.0552 77.9949C95.0401 77.9987 95.0242 77.9977 95.0098 77.9918C94.9955 77.986 94.9833 77.9757 94.9752 77.9625C94.967 77.9494 94.9633 77.934 94.9646 77.9186C94.9659 77.9032 94.972 77.8885 94.9822 77.8768H94.9913Z" fill="#18212A"/>
<path d="M89.985 200.64L82.3251 208.138C82.2163 208.251 82.0668 208.317 81.9095 208.32C81.7521 208.323 81.5999 208.264 81.4862 208.156C81.3725 208.047 81.3068 207.898 81.3034 207.742C81.2999 207.585 81.3591 207.433 81.4679 207.32L88.5807 199.313C88.6681 199.221 88.7728 199.147 88.8889 199.096C89.0049 199.044 89.13 199.016 89.257 199.013C89.3841 199.009 89.5105 199.031 89.6291 199.076C89.7478 199.121 89.8563 199.19 89.9485 199.277C90.0407 199.364 90.1148 199.468 90.1665 199.584C90.2183 199.699 90.2466 199.824 90.25 199.951C90.2534 200.077 90.2318 200.203 90.1863 200.322C90.1408 200.44 90.0724 200.548 89.985 200.64Z" fill="#18212A"/>
<path d="M86.2641 209.019C84.7595 209.019 83.2549 208.974 81.7502 208.901C81.5938 208.892 81.4473 208.822 81.3417 208.707C81.2361 208.591 81.1798 208.439 81.1849 208.283C81.1884 208.205 81.2075 208.128 81.2412 208.057C81.2748 207.986 81.3223 207.922 81.3809 207.87C81.4395 207.817 81.5079 207.777 81.5823 207.751C81.6567 207.726 81.7355 207.715 81.8141 207.72C89.7898 208.138 97.7854 207.465 105.578 205.72C106.626 205.484 107.867 205.093 108.149 204.175C108.173 204.101 108.211 204.033 108.262 203.973C108.312 203.914 108.374 203.865 108.444 203.83C108.513 203.794 108.589 203.773 108.667 203.767C108.745 203.76 108.823 203.77 108.897 203.794C108.971 203.816 109.04 203.854 109.099 203.903C109.159 203.952 109.208 204.013 109.243 204.082C109.279 204.15 109.301 204.225 109.307 204.302C109.313 204.379 109.304 204.456 109.28 204.53C108.815 206.02 107.201 206.565 105.842 206.865C99.417 208.308 92.8503 209.03 86.2641 209.019Z" fill="#18212A"/>
<path d="M108.013 204.902C107.873 204.901 107.739 204.851 107.633 204.761C107.526 204.672 107.454 204.548 107.429 204.412L103.982 184.645C103.956 184.491 103.992 184.332 104.082 184.204C104.173 184.077 104.311 183.99 104.465 183.963C104.619 183.937 104.777 183.971 104.905 184.06C105.033 184.148 105.12 184.283 105.149 184.436L108.596 204.203C108.623 204.358 108.587 204.517 108.497 204.647C108.406 204.776 108.268 204.865 108.113 204.893L108.013 204.902Z" fill="#18212A"/>
<path d="M133.646 152.863C128.256 160.752 123.123 168.84 118.034 176.929L114.268 183.027C111.906 187.008 109.061 190.952 108.432 195.605C107.52 200.84 110.256 206.565 115.964 207.102C117.413 207.183 118.865 207.183 120.314 207.102C134.129 206.447 149.385 204.375 163.173 202.885C163.318 202.882 163.459 202.933 163.569 203.028C163.679 203.122 163.75 203.254 163.77 203.398C163.789 203.541 163.754 203.687 163.673 203.807C163.591 203.926 163.468 204.012 163.328 204.048C158.577 204.748 153.826 205.438 149.066 206.084C139.527 207.329 129.989 208.556 120.36 209.019C119.247 209.019 117.806 209.174 116.712 209.092C109.317 209.092 105.332 202.076 106.517 195.351C106.921 192.875 107.747 190.486 108.961 188.289C111.368 184.054 113.94 180.055 116.539 176.011C121.727 167.95 127.044 159.97 132.67 152.191C132.762 152.063 132.901 151.977 133.057 151.951C133.212 151.926 133.372 151.963 133.5 152.054C133.628 152.146 133.714 152.285 133.74 152.44C133.766 152.595 133.728 152.754 133.637 152.881L133.646 152.863Z" fill="#18212A"/>
<path d="M63.0749 169.368C62.9859 169.368 62.8979 169.349 62.8174 169.311C62.7369 169.274 62.6659 169.218 62.6098 169.149C62.5125 169.027 62.4674 168.872 62.4845 168.717C62.5016 168.562 62.5794 168.42 62.701 168.322C83.109 151.836 100.088 124.772 112.572 105.014C118.043 96.362 122.32 89.5641 125.603 85.6653C125.652 85.6056 125.713 85.5562 125.781 85.5202C125.85 85.4841 125.925 85.4621 126.002 85.4554C126.08 85.4486 126.158 85.4572 126.231 85.4808C126.305 85.5043 126.374 85.5423 126.433 85.5925C126.493 85.6424 126.543 85.7037 126.579 85.7729C126.615 85.842 126.637 85.9177 126.644 85.9954C126.651 86.0732 126.642 86.1515 126.618 86.2258C126.595 86.3002 126.556 86.3691 126.506 86.4286C123.278 90.2275 119.001 97.0346 113.575 105.641C101.1 125.472 84.0026 152.636 63.4214 169.258C63.3189 169.327 63.1985 169.365 63.0749 169.368Z" fill="#18212A"/>
<path d="M136.6 117.419C121.873 144.284 98.748 165.35 73.8079 182.718C73.6798 182.81 73.5203 182.847 73.3647 182.821C73.2091 182.796 73.07 182.709 72.9781 182.582C72.8862 182.454 72.849 182.295 72.8746 182.14C72.9003 181.985 72.9867 181.846 73.1149 181.755C91.5714 168.504 109.381 153.954 123.378 135.95C128.036 129.973 132.3 123.701 136.144 117.174C136.179 117.116 136.234 117.075 136.299 117.058C136.364 117.041 136.433 117.05 136.491 117.083C136.519 117.099 136.544 117.121 136.564 117.146C136.584 117.172 136.598 117.201 136.607 117.232C136.615 117.263 136.617 117.296 136.613 117.328C136.609 117.36 136.598 117.391 136.582 117.419H136.6Z" fill="#18212A"/>
<path d="M63.5403 168.504C66.7501 173.666 70.2973 178.901 75.1577 182.609C75.243 182.713 75.2904 182.842 75.292 182.976C75.2937 183.111 75.2494 183.241 75.1667 183.347C75.0839 183.453 74.9675 183.527 74.8366 183.558C74.7057 183.589 74.5681 183.575 74.4464 183.518C71.9587 181.569 69.7336 179.309 67.8261 176.793C65.9172 174.319 64.1542 171.736 62.5463 169.059C62.4832 168.928 62.4711 168.779 62.5124 168.64C62.5537 168.502 62.6454 168.383 62.7696 168.308C62.8938 168.233 63.0417 168.207 63.1842 168.235C63.3267 168.263 63.4536 168.343 63.5403 168.459V168.504Z" fill="#18212A"/>
<path d="M77.2732 179.419C77.1261 179.421 76.9834 179.369 76.872 179.274C73.115 175.929 68.8474 172.148 66.4947 167.232C66.4605 167.162 66.4404 167.086 66.4357 167.009C66.4309 166.931 66.4415 166.853 66.467 166.78C66.4924 166.706 66.5321 166.639 66.5838 166.581C66.6355 166.522 66.6982 166.475 66.7683 166.441C66.8389 166.407 66.9155 166.388 66.9937 166.384C67.0719 166.38 67.1501 166.391 67.2239 166.417C67.2977 166.443 67.3655 166.484 67.4235 166.536C67.4814 166.589 67.5284 166.652 67.5616 166.723C69.814 171.421 73.9904 175.12 77.6653 178.392C77.7202 178.446 77.7638 178.51 77.7935 178.581C77.8232 178.652 77.8385 178.729 77.8385 178.806C77.8385 178.882 77.8232 178.959 77.7935 179.03C77.7638 179.101 77.7202 179.165 77.6653 179.219C77.6167 179.277 77.557 179.324 77.4896 179.359C77.4223 179.393 77.3487 179.414 77.2732 179.419Z" fill="#18212A"/>
<path d="M75.2763 155.962C73.8264 148.174 66.8322 133.742 74.0726 127.534C76.037 125.986 78.1799 124.677 80.4558 123.636C81.6222 123.067 82.8953 122.749 84.1928 122.702C85.4903 122.655 86.7833 122.88 87.9879 123.363L101.666 128.452C101.711 128.468 101.751 128.491 101.786 128.523C101.821 128.554 101.849 128.592 101.869 128.635C101.888 128.677 101.899 128.723 101.9 128.77C101.902 128.817 101.893 128.863 101.876 128.907C101.861 128.951 101.837 128.992 101.805 129.027C101.774 129.062 101.736 129.09 101.694 129.111C101.651 129.131 101.605 129.143 101.558 129.145C101.511 129.148 101.464 129.141 101.42 129.125L87.6323 124.454C86.5675 124.047 85.4269 123.874 84.2889 123.948C83.1509 124.022 82.0424 124.34 81.0394 124.881C76.945 127.017 72.5042 129.316 72.4586 134.578C72.3309 141.757 75.2854 148.601 76.4344 155.735C76.4493 155.882 76.4088 156.028 76.3209 156.147C76.2331 156.265 76.1041 156.346 75.9592 156.375C75.8143 156.403 75.6639 156.376 75.5376 156.3C75.4113 156.224 75.3181 156.104 75.2763 155.962Z" fill="#18212A"/>
<path d="M86.0818 190.37C85.9547 190.372 85.8308 190.331 85.7287 190.256C85.6267 190.181 85.5521 190.074 85.5164 189.952C84.7687 187.48 84.2215 185.29 83.6926 183.164C83.1638 181.037 82.6257 178.874 81.8689 176.429C81.8262 176.279 81.8442 176.117 81.9192 175.98C81.9942 175.842 82.1201 175.739 82.2701 175.693C82.4212 175.65 82.5831 175.668 82.7211 175.743C82.8591 175.818 82.9623 175.943 83.0087 176.093C83.7565 178.565 84.3036 180.755 84.8325 182.882C85.3614 185.008 85.8994 187.162 86.6563 189.607C86.7018 189.757 86.6862 189.918 86.6127 190.056C86.5392 190.194 86.4139 190.297 86.2642 190.343C86.2052 190.362 86.1436 190.371 86.0818 190.37Z" fill="#18212A"/>
<path d="M86.4195 190.516C86.2771 190.515 86.1398 190.463 86.0326 190.37C85.9254 190.276 85.8556 190.147 85.8359 190.007C85.8123 189.853 85.8508 189.696 85.943 189.57C86.0353 189.444 86.1738 189.359 86.3283 189.334L88.0244 189.089C94.0337 188.18 99.2133 187.435 104.238 184.054C104.367 183.967 104.526 183.934 104.68 183.963C104.834 183.992 104.97 184.08 105.058 184.209C105.145 184.339 105.177 184.498 105.146 184.651C105.115 184.805 105.025 184.94 104.894 185.027C99.66 188.562 94.3438 189.343 88.1977 190.252L86.5107 190.507L86.4195 190.516Z" fill="#18212A"/>
<path d="M104.858 183.145C104.719 183.145 104.585 183.097 104.479 183.009C104.372 182.921 104.3 182.799 104.274 182.663C103.909 180.573 103.563 178.401 103.216 176.165C102.229 169.21 100.859 162.314 99.1128 155.508C99.0921 155.434 99.0863 155.356 99.0957 155.28C99.1051 155.204 99.1296 155.13 99.1678 155.064C99.2059 154.997 99.257 154.938 99.318 154.891C99.379 154.844 99.4487 154.81 99.5231 154.79C99.598 154.768 99.6765 154.761 99.754 154.77C99.8316 154.779 99.9066 154.803 99.9746 154.841C100.043 154.879 100.102 154.93 100.15 154.992C100.198 155.053 100.233 155.124 100.253 155.199C102.019 162.045 103.398 168.984 104.383 175.984C104.739 178.21 105.077 180.373 105.441 182.454C105.456 182.531 105.454 182.609 105.438 182.686C105.421 182.762 105.389 182.834 105.344 182.897C105.299 182.961 105.242 183.015 105.175 183.056C105.109 183.097 105.035 183.124 104.958 183.136L104.858 183.145Z" fill="#18212A"/>
<path d="M120.907 170.84C120.855 170.848 120.803 170.848 120.752 170.84C116.365 169.622 110.721 165.305 106.59 162.151C105.295 161.161 104.174 160.334 103.353 159.752C103.223 159.662 103.134 159.525 103.105 159.37C103.076 159.215 103.11 159.056 103.198 158.925C103.286 158.797 103.423 158.708 103.576 158.679C103.73 158.65 103.889 158.683 104.019 158.771C104.867 159.343 105.997 160.216 107.32 161.215C111.131 164.133 116.913 168.54 121.071 169.704C121.222 169.746 121.35 169.846 121.427 169.983C121.504 170.119 121.523 170.28 121.481 170.431C121.442 170.551 121.365 170.656 121.262 170.73C121.158 170.803 121.034 170.842 120.907 170.84Z" fill="#18212A"/>
<path d="M90.1398 202.085C90.0001 202.085 89.865 202.036 89.7582 201.946C89.6514 201.856 89.5799 201.731 89.5563 201.594C89.3009 200.04 88.9727 198.032 88.6444 196.014C88.3161 193.996 87.9969 191.979 87.7325 190.434C87.7087 190.279 87.7469 190.12 87.839 189.993C87.9311 189.865 88.0696 189.779 88.2249 189.752C88.3022 189.739 88.3813 189.742 88.4576 189.759C88.5339 189.777 88.606 189.81 88.6696 189.855C88.7332 189.901 88.7871 189.959 88.8282 190.025C88.8692 190.092 88.8966 190.166 88.9088 190.243C89.1641 191.797 89.4833 193.815 89.8207 195.832C90.1581 197.85 90.4681 199.849 90.7326 201.403C90.7455 201.48 90.743 201.558 90.7251 201.634C90.7072 201.709 90.6744 201.78 90.6285 201.843C90.5827 201.906 90.5247 201.959 90.458 201.999C90.3913 202.039 90.3172 202.065 90.2402 202.076L90.1398 202.085Z" fill="#18212A"/>
<path d="M104.575 92.4905C102.56 105.314 107.311 105.214 114.606 96.1258C118.728 90.5275 123.606 82.1391 121.81 74.9958C121.792 74.9403 121.796 74.8801 121.822 74.8277C121.847 74.7753 121.892 74.7345 121.947 74.714C122.003 74.6967 122.065 74.7022 122.118 74.7294C122.17 74.7566 122.21 74.8032 122.229 74.8594C123.433 78.6946 122.339 82.7661 121.007 86.4105C118.922 91.9518 115.644 96.9709 111.405 101.115C109.162 103.296 104.876 105.523 103.463 101.233C102.551 98.2979 103.016 95.217 103.463 92.2815C103.487 92.1261 103.572 91.9865 103.699 91.8936C103.827 91.8007 103.986 91.7621 104.142 91.7862C104.298 91.8103 104.438 91.8952 104.531 92.0221C104.624 92.1491 104.663 92.3078 104.639 92.4632L104.575 92.4905Z" fill="#18212A"/>
<path d="M127.91 196.523C138.342 186.808 148.072 176.274 158.54 166.532C165.088 161.079 169.137 153.499 166.282 144.984C166.214 144.683 166.263 144.368 166.419 144.102C166.575 143.836 166.827 143.639 167.123 143.55C167.419 143.461 167.737 143.488 168.015 143.624C168.292 143.76 168.507 143.996 168.617 144.284C169.519 147.179 169.742 150.241 169.267 153.235C168.793 156.229 167.634 159.075 165.881 161.552C162.434 166.368 157.674 169.622 153.58 173.748C145.282 181.582 137.239 189.716 128.713 197.377C128.592 197.483 128.434 197.537 128.273 197.527C128.112 197.517 127.962 197.443 127.856 197.323C127.749 197.202 127.695 197.044 127.705 196.884C127.716 196.724 127.789 196.574 127.91 196.468V196.523Z" fill="#18212A"/>
<path d="M140.467 186.072C140.326 186.071 140.189 186.021 140.082 185.929C139.975 185.837 139.905 185.711 139.883 185.572C139.871 185.495 139.875 185.416 139.894 185.341C139.913 185.265 139.947 185.194 139.993 185.132C140.04 185.069 140.099 185.016 140.166 184.976C140.233 184.937 140.307 184.91 140.385 184.899C145.205 184.104 150.091 183.779 154.975 183.927C157.072 183.927 159.443 184 162.781 183.927C162.859 183.921 162.937 183.93 163.011 183.956C163.085 183.981 163.153 184.022 163.21 184.075C163.268 184.128 163.313 184.192 163.344 184.264C163.376 184.335 163.392 184.412 163.391 184.49C163.394 184.568 163.381 184.645 163.353 184.718C163.326 184.79 163.284 184.857 163.231 184.913C163.177 184.97 163.113 185.015 163.042 185.047C162.971 185.079 162.895 185.097 162.817 185.099C159.452 185.217 157.063 185.181 154.957 185.099C150.125 184.945 145.289 185.268 140.521 186.063L140.467 186.072Z" fill="#18212A"/>
<path d="M163.902 204.521H163.775C163.622 204.486 163.49 204.393 163.405 204.263C163.32 204.132 163.289 203.974 163.319 203.821C164.679 197.648 165.167 191.316 164.769 185.008C164.764 184.931 164.774 184.853 164.8 184.779C164.825 184.706 164.864 184.638 164.916 184.58C164.968 184.521 165.031 184.474 165.101 184.44C165.171 184.406 165.247 184.386 165.325 184.381C165.402 184.375 165.48 184.384 165.554 184.409C165.628 184.433 165.696 184.471 165.755 184.522C165.813 184.573 165.861 184.635 165.895 184.704C165.93 184.774 165.95 184.849 165.954 184.927C166.357 191.344 165.86 197.786 164.477 204.066C164.449 204.197 164.377 204.314 164.272 204.397C164.167 204.48 164.036 204.524 163.902 204.521Z" fill="#18212A"/>
<path d="M164.687 212.409C164.538 212.41 164.395 212.355 164.286 212.256C164.176 212.157 164.107 212.02 164.094 211.873L163.264 202.576C163.256 202.498 163.264 202.42 163.287 202.345C163.31 202.271 163.348 202.202 163.398 202.142C163.448 202.082 163.51 202.032 163.579 201.996C163.648 201.96 163.724 201.938 163.802 201.931C163.959 201.918 164.114 201.967 164.235 202.067C164.356 202.167 164.433 202.311 164.449 202.467L165.279 211.764C165.292 211.92 165.243 212.076 165.142 212.196C165.042 212.317 164.898 212.393 164.741 212.409H164.687Z" fill="#18212A"/>
<path d="M164.358 211.537C169.027 206.586 172.737 200.818 175.301 194.524C176.144 192.566 176.647 190.479 176.787 188.353C176.422 187.78 177.526 186.926 177.927 188.026C178.043 189.249 177.919 190.484 177.562 191.661C176.681 195.049 175.376 198.313 173.678 201.376C171.443 205.454 168.754 209.268 165.662 212.745C165.504 212.91 165.291 213.01 165.063 213.025C164.835 213.041 164.609 212.97 164.431 212.827C164.259 212.668 164.156 212.448 164.142 212.215C164.129 211.981 164.206 211.751 164.358 211.573V211.537Z" fill="#18212A"/>
<path d="M164.012 203.694C163.943 203.706 163.871 203.706 163.802 203.694L157.082 201.176C156.936 201.121 156.818 201.011 156.753 200.87C156.688 200.729 156.682 200.568 156.735 200.422C156.762 200.349 156.804 200.282 156.857 200.225C156.911 200.169 156.975 200.123 157.046 200.091C157.117 200.059 157.194 200.041 157.272 200.038C157.35 200.036 157.428 200.049 157.501 200.077L164.222 202.594C164.367 202.649 164.485 202.759 164.55 202.901C164.615 203.042 164.621 203.203 164.568 203.348C164.518 203.453 164.439 203.541 164.34 203.602C164.242 203.663 164.128 203.695 164.012 203.694Z" fill="#18212A"/>
<path d="M177.307 188.517C177.186 188.517 177.068 188.478 176.969 188.407C176.313 188.098 169.565 185.681 165.343 185.545C165.265 185.542 165.188 185.525 165.117 185.493C165.046 185.461 164.982 185.416 164.929 185.359C164.876 185.302 164.834 185.236 164.806 185.163C164.779 185.091 164.766 185.013 164.768 184.936C164.778 184.781 164.846 184.635 164.96 184.529C165.073 184.422 165.223 184.363 165.379 184.363C169.072 184.481 177.553 186.908 177.863 187.717C177.891 187.79 177.904 187.867 177.901 187.945C177.899 188.023 177.881 188.099 177.849 188.17C177.817 188.241 177.771 188.305 177.714 188.358C177.657 188.412 177.59 188.453 177.517 188.48C177.45 188.506 177.378 188.518 177.307 188.517Z" fill="#18212A"/>
<path d="M102.542 55.9922C102.861 54.1434 103.656 52.4087 104.849 50.9573C107.812 47.8674 111.879 48.5036 113.174 52.6387C113.872 55.0265 113.9 57.5588 113.257 59.9617C112.614 62.3646 111.324 64.5465 109.527 66.271C109.414 66.3799 109.264 66.4407 109.107 66.4407C108.95 66.4407 108.8 66.3799 108.688 66.271C108.591 66.1602 108.537 66.0181 108.537 65.8711C108.537 65.7241 108.591 65.5821 108.688 65.4713C110.116 63.8347 111.114 61.8699 111.591 59.7537C112.069 57.6374 112.011 55.436 111.423 53.3475C110.229 49.7123 106.864 50.9301 105.222 53.4748C104.631 54.4049 104.127 55.3876 103.718 56.4103C103.662 56.5463 103.558 56.657 103.425 56.7206C103.292 56.7841 103.14 56.7961 102.999 56.7541C102.858 56.7121 102.738 56.6191 102.661 56.4934C102.585 56.3676 102.559 56.2181 102.587 56.074L102.542 55.9922Z" fill="#18212A"/>
<path d="M107.94 50.0394C107.94 50.0394 99.0674 32.7719 94.7906 31.1361C94.735 31.0777 94.6703 31.0286 94.5991 30.9906C91.2434 29.3275 87.304 29.9273 83.7568 30.5544C79.9108 31.2434 76.1588 32.378 72.5771 33.9352C70.7553 34.6757 68.9959 35.5601 67.3155 36.5799C66.2395 37.2615 65.2 38.4612 65.6559 39.9153C65.7683 40.2513 65.9701 40.5505 66.24 40.7811C66.5098 41.0116 66.8375 41.1647 67.1879 41.2239C49.4426 55.5469 60.8047 56.5103 61.3153 56.3467C60.6314 58.4461 60.2575 61.1634 61.8168 62.8084C63.6406 64.7169 66.5769 63.6536 68.6104 62.7084C70.8871 61.5974 72.9565 60.1067 74.7292 58.3007C76.4691 56.5485 78.0812 54.6745 79.553 52.6932C79.7975 53.2083 80.1417 53.6701 80.5658 54.0522C80.9898 54.4344 81.4855 54.7291 82.0243 54.9198C84.1216 55.6559 86.2918 54.5836 88.0791 53.4112C88.8633 52.8932 90.4045 51.8026 90.4045 51.8026C90.4045 51.8026 92.3924 53.384 95.7299 51.9299L102.606 60.3818C103.054 58.6019 103.636 56.8581 104.347 55.1652C105.232 53.2587 106.448 51.5233 107.94 50.0394ZM84.1033 32.2448L83.8753 32.3175L83.009 32.4447L84.1033 32.2448Z" fill="#18212A"/>
<path d="M67.2425 61.3635C72.1211 67.8889 76.1699 74.9957 81.7415 80.9394C83.31 82.5117 84.9331 84.093 86.9757 84.711C90.678 85.4199 94.1614 83.9385 97.3165 81.9846C99.0673 80.9576 100.836 79.8944 102.697 78.9674C102.861 78.894 103.047 78.886 103.216 78.9452C103.386 79.0043 103.526 79.1262 103.609 79.2854C103.685 79.4474 103.696 79.6327 103.638 79.8023C103.58 79.9718 103.458 80.1124 103.298 80.1942C101.475 81.1031 99.7604 82.1118 97.9913 83.1479C94.4988 85.2927 89.9394 87.1558 85.8085 85.6835C83.8992 84.7277 82.1956 83.4094 80.7931 81.8029C78.0319 78.7537 75.4992 75.5065 73.2154 72.0875C70.881 68.7522 68.656 65.2714 66.2942 62.0905C66.2322 61.9689 66.2144 61.8296 66.2438 61.6964C66.2731 61.5631 66.3479 61.4441 66.4553 61.3595C66.5627 61.275 66.6962 61.2301 66.833 61.2325C66.9699 61.2349 67.1017 61.2844 67.2061 61.3726L67.2425 61.3635Z" fill="#18212A"/>
<path d="M98.5383 82.1212C101.119 85.9746 103.499 89.9461 105.724 93.9994C105.763 94.0731 105.772 94.1592 105.748 94.2391C105.724 94.3189 105.669 94.3863 105.596 94.4267C105.525 94.4659 105.441 94.4755 105.362 94.4534C105.284 94.4313 105.217 94.3793 105.177 94.3085C102.806 90.3642 100.271 86.5108 97.5717 82.8028C97.5222 82.7398 97.4862 82.6676 97.4656 82.5903C97.445 82.513 97.4404 82.4323 97.4521 82.3532C97.4637 82.2741 97.4914 82.1981 97.5333 82.13C97.5753 82.0618 97.6307 82.0028 97.6962 81.9566C97.7617 81.9104 97.8359 81.878 97.9144 81.8613C97.9928 81.8445 98.0738 81.8438 98.1526 81.8592C98.2313 81.8746 98.3061 81.9058 98.3724 81.9508C98.4387 81.9958 98.4951 82.0538 98.5383 82.1212Z" fill="#18212A"/>
<path d="M81.9875 65.9621L82.7444 69.1884C83.1638 70.7243 83.328 72.4419 84.1487 73.7961C84.9693 75.1502 86.7293 75.6137 88.1154 76.1954C88.2481 76.2601 88.3517 76.372 88.406 76.509C88.4602 76.646 88.4612 76.7981 88.4087 76.9358C88.3562 77.0734 88.254 77.1866 88.1221 77.2531C87.9902 77.3195 87.8382 77.3345 87.6959 77.295C83.1365 75.2774 82.8447 73.987 82.1699 69.3157L81.6045 66.0348C81.5948 65.9842 81.6057 65.9318 81.6348 65.8892C81.6639 65.8466 81.7087 65.8173 81.7595 65.8076C81.8103 65.798 81.8629 65.8088 81.9056 65.8378C81.9484 65.8668 81.9778 65.9114 81.9875 65.9621Z" fill="#18212A"/>
<path d="M116.73 77.5768C116.572 77.5736 116.421 77.5083 116.311 77.3951L116.028 77.1133C115.93 77.0128 115.872 76.8805 115.864 76.7407L108.715 66.1984C108.628 66.0681 108.596 65.9089 108.627 65.7556C108.658 65.6023 108.748 65.4673 108.879 65.3804C109.01 65.2939 109.169 65.2626 109.323 65.2932C109.477 65.3239 109.612 65.4141 109.7 65.5441L117.223 76.6498C117.307 76.7713 117.342 76.92 117.322 77.0664C117.302 77.2127 117.227 77.3462 117.113 77.4405C117.005 77.5288 116.87 77.577 116.73 77.5768Z" fill="#18212A"/>
<path d="M60.1663 185.49C57.1285 187.652 54.843 190.705 53.6281 194.224C53.3181 195.132 53.0171 196.559 53.9472 197.068C54.8774 197.577 55.8896 196.568 56.4367 195.705C57.1216 194.631 57.8706 193.599 58.6799 192.615C60.3085 190.627 62.1837 188.852 64.2607 187.335C64.3235 187.289 64.3948 187.255 64.4706 187.237C64.5463 187.218 64.625 187.215 64.7021 187.227C64.7792 187.239 64.8531 187.265 64.9198 187.306C64.9864 187.346 65.0445 187.399 65.0905 187.462C65.1811 187.592 65.2174 187.752 65.1919 187.908C65.1664 188.064 65.0809 188.204 64.9537 188.298C62.9273 189.726 61.0891 191.402 59.4824 193.287C58.1054 194.687 57.4489 196.596 55.771 197.75C52.8986 199.158 51.7223 196.305 52.7801 193.933C53.2129 192.719 53.7754 191.555 54.4579 190.461C55.8128 188.268 57.6109 186.38 59.7377 184.917C60.1116 184.663 60.522 185.235 60.1481 185.49H60.1663Z" fill="#18212A"/>
<path d="M56.0537 183.081C53.8333 185.452 52.1781 188.291 51.2116 191.388C50.9653 192.406 50.2997 193.696 51.166 194.496C51.5216 194.805 52.1964 194.869 52.2602 194.732C52.2952 194.659 52.3447 194.593 52.4057 194.539C52.4667 194.484 52.538 194.443 52.6154 194.417C52.6928 194.39 52.7746 194.38 52.8562 194.386C52.9377 194.392 53.0172 194.414 53.09 194.451C53.1996 194.505 53.2918 194.588 53.3562 194.692C53.4207 194.796 53.4549 194.915 53.4549 195.037C53.4549 195.159 53.4207 195.278 53.3562 195.382C53.2918 195.485 53.1996 195.569 53.09 195.623C52.6971 195.882 52.2273 196 51.758 195.957C51.2888 195.914 50.8484 195.713 50.5094 195.387C48.6857 193.769 50.3726 190.997 51.011 189.189C52.1192 186.72 53.6635 184.47 55.5704 182.545C55.9169 182.2 56.4823 182.727 56.1266 183.081H56.0537Z" fill="#18212A"/>
<path d="M64.0784 171.267C60.9233 174.311 46.1963 187.253 50.0262 191.506C50.1302 191.602 50.192 191.734 50.198 191.875C50.204 192.015 50.1537 192.152 50.0582 192.256C49.9626 192.36 49.8297 192.421 49.6886 192.427C49.5475 192.433 49.4098 192.383 49.3058 192.288C46.0139 188.816 51.6676 182.8 53.8653 180.046C56.8629 176.707 60.0409 173.534 63.3853 170.54C63.4847 170.471 63.6058 170.44 63.7263 170.453C63.8468 170.465 63.9585 170.521 64.0408 170.61C64.1231 170.699 64.1704 170.814 64.174 170.935C64.1775 171.056 64.1371 171.174 64.0601 171.267H64.0784Z" fill="#18212A"/>
<path d="M64.9629 188.135C62.5191 190.916 59.9202 200.74 65.5647 192.797L73.8538 181.446C73.8991 181.382 73.9566 181.328 74.0229 181.287C74.0892 181.246 74.1631 181.218 74.2402 181.206C74.3173 181.193 74.3963 181.196 74.4724 181.213C74.5484 181.231 74.6202 181.264 74.6836 181.31C74.7478 181.355 74.8023 181.414 74.8436 181.481C74.8849 181.548 74.9123 181.623 74.9242 181.701C74.9361 181.779 74.9323 181.858 74.9129 181.935C74.8935 182.011 74.8589 182.083 74.8113 182.146C73.0787 184.281 65.7471 194.306 63.8686 196.014C62.2637 197.477 61.0236 196.014 61.5525 194.26C62.0029 191.902 63.0198 189.688 64.5161 187.808C64.5377 187.78 64.5644 187.757 64.5948 187.74C64.6253 187.723 64.6589 187.712 64.6936 187.708C64.7283 187.703 64.7635 187.706 64.7972 187.715C64.8309 187.725 64.8624 187.741 64.8899 187.762C64.9175 187.784 64.9405 187.81 64.9577 187.841C64.9749 187.871 64.9859 187.905 64.9902 187.939C64.9944 187.974 64.9918 188.009 64.9824 188.042C64.973 188.076 64.9571 188.107 64.9356 188.135H64.9629Z" fill="#18212A"/>
<path d="M100.626 96.126C99.9882 103.824 101.675 111.576 104.274 118.774C104.315 118.918 104.3 119.072 104.231 119.205C104.163 119.338 104.046 119.44 103.905 119.491C103.764 119.542 103.609 119.537 103.471 119.478C103.333 119.419 103.222 119.311 103.162 119.174C100.827 111.749 99.3955 103.869 100.326 96.0896C100.326 96.0438 100.344 95.9999 100.376 95.9675C100.409 95.9351 100.453 95.917 100.499 95.917C100.545 95.917 100.589 95.9351 100.621 95.9675C100.654 95.9999 100.672 96.0438 100.672 96.0896L100.626 96.126Z" fill="#18212A"/>
<path d="M100.672 105.551C99.6872 110.776 101.292 116.111 103.18 121C103.24 121.146 103.24 121.31 103.179 121.456C103.119 121.601 103.002 121.717 102.856 121.777C102.71 121.838 102.545 121.838 102.399 121.777C102.253 121.717 102.137 121.601 102.076 121.455C100.399 116.375 99.0398 110.831 100.326 105.514C100.344 105.477 100.374 105.447 100.411 105.429C100.449 105.411 100.491 105.407 100.532 105.417C100.572 105.426 100.608 105.449 100.634 105.482C100.659 105.514 100.673 105.555 100.672 105.596V105.551Z" fill="#18212A"/>
<path d="M46.0136 140.458C46.2944 145.497 47.7093 150.407 50.1536 154.827C50.1902 154.895 50.2129 154.97 50.2204 155.048C50.2278 155.125 50.2199 155.203 50.197 155.277C50.1741 155.352 50.1368 155.421 50.0871 155.481C50.0374 155.54 49.9763 155.59 49.9073 155.626C49.4241 155.89 49.1049 155.417 48.8587 155.072C48.8013 154.951 48.787 154.814 48.8181 154.683C48.8493 154.553 48.9241 154.437 49.0302 154.354C49.1363 154.272 49.2674 154.228 49.402 154.229C49.5365 154.231 49.6665 154.278 49.7706 154.363L50.0624 154.745C50.0624 154.745 49.0593 155.399 49.0684 155.372C46.7433 150.744 45.4965 145.652 45.4209 140.476C45.4332 140.407 45.4696 140.344 45.5238 140.299C45.578 140.253 45.6465 140.229 45.7173 140.229C45.788 140.229 45.8565 140.253 45.9107 140.299C45.9649 140.344 46.0014 140.407 46.0136 140.476V140.458Z" fill="#18212A"/>
<path d="M54.3208 153.581C54.212 153.581 54.1054 153.551 54.0123 153.495C53.9191 153.439 53.843 153.359 53.7919 153.263C51.5119 148.992 49.9151 144.393 49.0592 139.631C49.0323 139.477 49.0668 139.318 49.1554 139.189C49.244 139.06 49.3796 138.971 49.5334 138.94C49.6892 138.914 49.8493 138.949 49.979 139.039C50.1087 139.13 50.1975 139.267 50.2264 139.422C51.0572 144.076 52.6141 148.571 54.8406 152.745C54.8772 152.814 54.8998 152.889 54.9073 152.966C54.9147 153.044 54.9068 153.122 54.884 153.196C54.8611 153.27 54.8237 153.339 54.7741 153.399C54.7244 153.459 54.6633 153.509 54.5943 153.545C54.5071 153.578 54.4136 153.59 54.3208 153.581Z" fill="#18212A"/>
<path d="M49.4606 155.49C49.322 155.489 49.188 155.44 49.0828 155.35C48.9775 155.26 48.9078 155.135 48.8861 154.999C48.8704 154.922 48.8706 154.843 48.8868 154.767C48.9029 154.69 48.9346 154.618 48.9799 154.554C49.0251 154.49 49.0831 154.436 49.1501 154.396C49.2171 154.355 49.2918 154.328 49.3695 154.317C57.7075 152.897 65.8066 150.328 73.4341 146.683C73.5047 146.649 73.5813 146.63 73.6595 146.626C73.7377 146.622 73.8159 146.633 73.8897 146.659C73.9635 146.685 74.0313 146.726 74.0893 146.778C74.1473 146.831 74.1942 146.894 74.2274 146.965C74.2615 147.034 74.2814 147.109 74.286 147.186C74.2907 147.263 74.28 147.34 74.2545 147.413C74.2291 147.485 74.1894 147.552 74.1378 147.61C74.0862 147.667 74.0237 147.714 73.9539 147.747C66.2263 151.442 58.0193 154.045 49.5701 155.481L49.4606 155.49Z" fill="#18212A"/>
<path d="M52.652 182.627C51.0015 182.627 49.7978 182.182 49.2598 181.364C49.0856 181.096 48.9832 180.789 48.9624 180.471C48.9417 180.152 49.0033 179.834 49.1413 179.546C49.6519 178.356 52.2781 177.601 56.0624 176.82L56.3725 176.756C56.4486 176.739 56.5274 176.737 56.6043 176.751C56.6811 176.764 56.7545 176.793 56.8199 176.836C56.8854 176.878 56.9417 176.933 56.9855 176.997C57.0292 177.062 57.0595 177.134 57.0746 177.211C57.1071 177.364 57.0773 177.523 56.9919 177.655C56.9064 177.786 56.7721 177.878 56.6187 177.91L56.2995 177.974C51.3389 178.983 50.3723 179.683 50.2264 180.001C50.1648 180.107 50.1323 180.228 50.1323 180.351C50.1323 180.473 50.1648 180.594 50.2264 180.7C50.5364 181.164 51.4392 181.437 52.6337 181.437C52.7909 181.437 52.9417 181.499 53.0529 181.61C53.1641 181.72 53.2265 181.871 53.2265 182.027C53.229 182.183 53.1701 182.332 53.0626 182.445C52.9551 182.557 52.8076 182.622 52.652 182.627Z" fill="#18212A"/>
<path d="M38.2535 157.217H37.451C37.2946 157.21 37.1471 157.142 37.0398 157.028C36.9326 156.915 36.874 156.764 36.8765 156.608C36.8859 156.453 36.9543 156.307 37.0679 156.2C37.1815 156.094 37.3316 156.035 37.4875 156.035C41.1 156.14 44.6934 155.477 48.0289 154.09C48.1753 154.03 48.3398 154.029 48.4866 154.089C48.6334 154.148 48.7508 154.263 48.8131 154.408C48.8711 154.553 48.8702 154.715 48.8106 154.859C48.7511 155.003 48.6375 155.119 48.494 155.181C45.2485 156.526 41.7683 157.217 38.2535 157.217Z" fill="#18212A"/>
<path d="M88.8905 63.3903C90.4225 63.0086 92.1277 66.7256 90.459 67.0255C88.7902 67.3255 87.3585 63.7811 88.8905 63.3903Z" fill="#18212A"/>
<path d="M77.8019 68.8156C79.3521 68.5247 80.8111 72.3509 79.115 72.5872C77.4189 72.8235 76.2426 69.0973 77.8019 68.8156Z" fill="#18212A"/>
<path d="M35.7733 124.39C35.6398 124.391 35.51 124.347 35.4055 124.264C35.3009 124.182 35.228 124.066 35.1988 123.936C35.1631 123.784 35.1891 123.624 35.2711 123.492C35.3531 123.359 35.4845 123.264 35.6365 123.227C40.0227 122.2 46.5791 118.374 50.792 110.967C53.7192 105.787 56.3637 97.0529 52.3696 84.9202C50.6188 79.5945 51.631 73.9144 52.6067 68.4161C52.7526 67.6163 52.8894 66.8346 53.0171 66.053C55.2512 52.7207 54.8408 42.4238 51.6674 34.4171C51.0291 32.8085 50.2631 31.2635 49.5245 29.7731C49.0412 28.7915 48.5306 27.7737 48.0655 26.7285C46.0621 22.2077 44.6905 17.4342 43.9894 12.5418C43.8617 11.6875 43.7887 10.7241 43.7067 9.8153C43.2781 4.67139 42.6671 1.05431 38.4542 1.20881C35.2717 1.33605 32.454 7.57056 30.0649 19.7397C29.8642 20.7939 29.764 21.2665 29.691 21.4846C28.6971 24.2929 26.6544 25.1198 24.6665 25.965C23.8269 26.2818 23.0181 26.6743 22.25 27.1375C17.8547 29.9457 18.8578 35.3168 19.8335 40.4971L20.0432 41.615C20.5735 44.2669 21.237 46.8906 22.0312 49.4762C22.8854 52.2462 23.5826 55.062 24.1194 57.9101C24.4842 60.0367 22.6695 62.3451 20.1527 65.5442C17.0979 69.4248 12.9032 74.7505 11.4989 81.9029C9.27389 93.2541 17.4809 101.897 27.0009 111.976L29.7366 114.839C29.7917 114.893 29.8355 114.959 29.8653 115.03C29.8952 115.102 29.9106 115.179 29.9106 115.257C29.9106 115.334 29.8952 115.411 29.8653 115.483C29.8355 115.555 29.7917 115.62 29.7366 115.675C29.6823 115.729 29.6177 115.773 29.5465 115.802C29.4753 115.832 29.3988 115.847 29.3217 115.847C29.2445 115.847 29.1681 115.832 29.0969 115.802C29.0257 115.773 28.9611 115.729 28.9068 115.675L26.1711 112.821C16.4413 102.542 8.03375 93.654 10.3864 81.7121C11.8454 74.287 16.1313 68.8432 19.2682 64.8626C21.5023 62.018 23.2713 59.7641 22.9977 58.1555C22.4658 55.3507 21.7779 52.5775 20.9369 49.8488C20.1304 47.2277 19.4578 44.5675 18.9216 41.8785L18.721 40.7606C17.7179 35.4531 16.5872 29.4277 21.6482 26.2195C22.4781 25.7195 23.3508 25.2937 24.2562 24.9472C26.162 24.1565 27.8034 23.475 28.615 21.1666C28.6697 21.0211 28.8065 20.3213 28.9524 19.5942C29.9828 14.3231 32.7276 0.327283 38.4542 0.100078C44.1809 -0.127127 44.5639 5.37127 44.9286 9.79722C45.0107 10.706 45.0836 11.6148 45.2022 12.46C45.89 17.2452 47.2307 21.9143 49.1871 26.3377C49.6522 27.3556 50.1537 28.3644 50.637 29.3459C51.3847 30.8546 52.1599 32.4177 52.8164 34.0718C56.0354 42.2511 56.4639 52.7934 54.2389 66.3348C54.1022 67.1255 53.9654 67.9162 53.8195 68.7159C52.9076 74.0689 51.8772 79.6218 53.5459 84.6476C57.6676 97.1802 54.9138 106.25 51.8681 111.639C47.5093 119.383 40.5698 123.381 35.9557 124.463L35.7733 124.39Z" fill="#18212A"/>
<path d="M37.1955 190.752C37.0518 190.751 36.9133 190.698 36.8059 190.603C36.6986 190.507 36.6296 190.376 36.6119 190.234C35.3809 180.955 34.9432 172.058 34.5237 163.369C34.4325 161.552 34.3505 159.734 34.2502 157.917C34.2465 157.839 34.2582 157.761 34.2846 157.688C34.3111 157.615 34.3517 157.548 34.4042 157.491C34.4567 157.433 34.5201 157.387 34.5907 157.354C34.6613 157.321 34.7377 157.302 34.8155 157.299C34.8935 157.291 34.9722 157.3 35.0466 157.324C35.121 157.348 35.1895 157.388 35.2478 157.44C35.3061 157.492 35.3529 157.556 35.3852 157.627C35.4176 157.698 35.4347 157.775 35.4356 157.853L35.7092 163.306C36.1286 171.931 36.5572 180.846 37.7883 190.071C37.7985 190.148 37.7934 190.226 37.7733 190.301C37.7532 190.376 37.7184 190.446 37.671 190.508C37.6235 190.569 37.5644 190.621 37.4969 190.66C37.4294 190.699 37.3549 190.724 37.2776 190.734L37.1955 190.752Z" fill="#18212A"/>
<path d="M37.0956 173.575C36.9451 173.574 36.8008 173.516 36.6911 173.413C36.5814 173.31 36.5142 173.171 36.5028 173.021C36.3113 169.777 36.1563 166.578 36.0013 163.397L35.7277 157.88C35.7228 157.803 35.7334 157.726 35.7588 157.652C35.7842 157.579 35.8239 157.512 35.8757 157.455C35.9275 157.397 35.9903 157.351 36.0604 157.317C36.1305 157.284 36.2065 157.266 36.284 157.262C36.3621 157.256 36.4407 157.265 36.5151 157.29C36.5894 157.315 36.658 157.354 36.7167 157.406C36.7754 157.458 36.8231 157.521 36.8569 157.591C36.8906 157.662 36.9098 157.738 36.9132 157.816L37.1867 163.333C37.3418 166.514 37.4968 169.695 37.6883 172.948C37.6933 173.026 37.6827 173.104 37.6574 173.177C37.6321 173.251 37.5925 173.319 37.5408 173.377C37.4891 173.435 37.4264 173.483 37.3563 173.517C37.2861 173.551 37.2099 173.571 37.132 173.575H37.0956Z" fill="#18212A"/>
<path d="M37.1869 17.9856C38.0112 44.541 37.2103 71.1218 34.7886 97.58C33.8767 113.475 34.2324 129.389 34.4786 145.311C34.4787 145.467 34.4177 145.617 34.3088 145.729C34.1998 145.841 34.0514 145.906 33.895 145.911C33.8171 145.912 33.7398 145.898 33.6674 145.87C33.5951 145.841 33.529 145.798 33.4731 145.744C33.4172 145.69 33.3726 145.626 33.3417 145.555C33.3108 145.484 33.2943 145.407 33.2931 145.329C32.7187 124.108 32.6365 102.76 34.8524 81.612C36.6762 60.4638 36.9406 39.2156 36.6762 17.9946C36.675 17.9624 36.6802 17.9303 36.6914 17.9001C36.7027 17.8699 36.7198 17.8421 36.7418 17.8184C36.7638 17.7948 36.7903 17.7757 36.8197 17.7623C36.8492 17.7489 36.881 17.7414 36.9133 17.7402C36.9795 17.7402 37.043 17.7657 37.0907 17.8115C37.1383 17.8572 37.1663 17.9197 37.1687 17.9856H37.1869Z" fill="#18212A"/>
<path d="M39.6123 37.9434C39.6123 55.8744 38.2262 73.7781 36.676 91.6273C35.3629 109.486 35.5635 127.408 35.9556 145.311C35.958 145.388 35.945 145.465 35.9174 145.537C35.8897 145.609 35.8479 145.675 35.7944 145.731C35.741 145.787 35.6769 145.832 35.6059 145.863C35.535 145.893 35.4585 145.91 35.3811 145.911C35.2246 145.914 35.0732 145.855 34.9591 145.748C34.8451 145.641 34.7773 145.494 34.7702 145.339C34.2869 122.945 34.5878 100.47 36.986 78.1677C37.369 73.7054 37.7247 69.2431 38.0073 64.7808C38.6001 55.8471 38.9192 46.8952 39.0287 37.9434C39.0286 37.9044 39.0365 37.8658 39.0517 37.8299C39.0669 37.794 39.0892 37.7616 39.1173 37.7345C39.1454 37.7073 39.1786 37.6861 39.2151 37.672C39.2516 37.6579 39.2905 37.6513 39.3296 37.6525C39.4054 37.6548 39.4773 37.6866 39.5301 37.7409C39.5828 37.7952 39.6123 37.8678 39.6123 37.9434Z" fill="#18212A"/>
<path d="M10.7148 194.724C16.5691 180.128 37.962 177.693 51.0019 183.091C51.147 183.151 51.2622 183.266 51.322 183.411C51.3819 183.556 51.3815 183.719 51.3211 183.863C51.2605 184.004 51.1484 184.116 51.0078 184.177C50.8671 184.237 50.7085 184.242 50.5642 184.191C47.1112 182.963 43.4938 182.255 39.8313 182.091C29.3447 181.591 16.4597 184.818 11.873 195.187C11.8161 195.334 11.703 195.453 11.5585 195.517C11.414 195.581 11.2499 195.585 11.1024 195.528C10.9549 195.471 10.836 195.359 10.7718 195.215C10.7077 195.071 10.7036 194.907 10.7604 194.76L10.7148 194.724Z" fill="#18212A"/>
<path d="M16.1221 204.703C19.1131 198.177 29.3718 198.786 33.1926 204.212C33.2655 204.341 33.2873 204.492 33.2536 204.636C33.2198 204.781 33.133 204.907 33.0104 204.99C32.8877 205.074 32.7381 205.108 32.5912 205.087C32.4442 205.065 32.3107 204.99 32.2169 204.875C28.6332 200.331 20.0067 199.732 16.8607 205.084C16.8026 205.168 16.7159 205.227 16.617 205.252C16.518 205.276 16.4136 205.264 16.3231 205.217C16.2326 205.17 16.1622 205.092 16.1253 204.998C16.0883 204.903 16.0871 204.798 16.1221 204.703Z" fill="#18212A"/>
<path d="M12.8941 205.902C14.9002 201.267 22.1679 201.676 24.8124 205.52C24.855 205.585 24.8842 205.658 24.8986 205.734C24.9129 205.811 24.912 205.889 24.8959 205.965C24.8798 206.041 24.8488 206.113 24.8048 206.177C24.7607 206.241 24.7045 206.296 24.6391 206.338C24.5096 206.42 24.3534 206.45 24.2025 206.422C24.0516 206.393 23.9175 206.308 23.8276 206.184C22.8439 205.089 21.5434 204.326 20.1058 204.001C18.6682 203.675 17.1646 203.803 15.803 204.366C14.9121 204.779 14.1588 205.438 13.6327 206.265C13.5746 206.349 13.4879 206.408 13.389 206.433C13.29 206.457 13.1855 206.445 13.095 206.398C13.0045 206.351 12.9342 206.273 12.8972 206.179C12.8602 206.084 12.8591 205.979 12.8941 205.884V205.902Z" fill="#18212A"/>
<path d="M0.0817966 200.268C4.74153 192.752 18.7937 193.751 24.2377 199.877C24.3405 199.997 24.391 200.154 24.3782 200.311C24.3653 200.469 24.2902 200.615 24.1693 200.717C24.0484 200.82 23.8916 200.87 23.7334 200.857C23.5752 200.845 23.4286 200.77 23.3258 200.649C18.046 195.76 5.72638 194.669 1.06665 200.913C0.980793 201.044 0.846098 201.136 0.692188 201.169C0.538277 201.201 0.377792 201.171 0.245985 201.086C0.114178 201 0.0218425 200.866 -0.0106498 200.712C-0.043142 200.559 -0.0131311 200.399 0.0727245 200.268H0.0817966Z" fill="#18212A"/>
<path d="M39.8858 207.965C43.8161 197.968 59.0355 198.813 64.1329 207.329C64.1718 207.396 64.197 207.469 64.2071 207.546C64.2172 207.622 64.2119 207.7 64.1915 207.775C64.1711 207.849 64.1361 207.919 64.0885 207.979C64.0409 208.04 63.9815 208.091 63.914 208.129C63.7835 208.205 63.6286 208.229 63.4811 208.195C63.3336 208.161 63.2046 208.072 63.1207 207.947C58.0141 200.876 45.2295 200.149 40.9527 208.465C40.8769 208.59 40.7574 208.682 40.6172 208.725C40.477 208.767 40.3261 208.756 40.1936 208.694C40.061 208.631 39.9563 208.523 39.8995 208.388C39.8427 208.254 39.8378 208.103 39.8858 207.965Z" fill="#18212A"/>
<path d="M30.4389 38.9522C34.3094 45.6024 36.6137 53.0419 37.1777 60.7093C37.3145 61.9271 35.5545 61.6182 36.1108 60.573C36.0746 60.5969 36.0448 60.6293 36.0242 60.6673C36.0035 60.7054 35.9925 60.7479 35.9922 60.7912C35.6717 55.1839 34.4621 49.6626 32.4085 44.4324C31.7009 42.6675 30.8691 40.9546 29.9191 39.3066C29.7367 38.9886 30.2565 38.6795 30.4389 39.0158V38.9522Z" fill="#18212A"/>
<path d="M23.417 88.8641C27.4516 94.2171 31.14 99.8207 34.4599 105.641C34.499 105.708 34.5245 105.783 34.5346 105.86C34.5448 105.937 34.5396 106.015 34.5192 106.091C34.4989 106.166 34.4638 106.236 34.4161 106.298C34.3683 106.36 34.3089 106.411 34.241 106.45C34.1723 106.491 34.0958 106.517 34.0163 106.528C33.9368 106.538 33.8561 106.532 33.7791 106.51C33.7021 106.487 33.6305 106.45 33.5688 106.399C33.5071 106.348 33.4565 106.285 33.4203 106.213C31.8519 103.275 30.2075 100.379 28.487 97.5251C26.7727 94.6714 24.9763 91.8541 23.0157 89.1458C22.8334 88.9095 23.2163 88.6097 23.4078 88.8641H23.417Z" fill="#18212A"/>
<path d="M35.1897 111.685C40.2868 107.897 44.104 102.65 46.1323 96.644C46.1444 96.6042 46.1719 96.5708 46.2086 96.5512C46.2454 96.5316 46.2885 96.5274 46.3284 96.5395C46.3683 96.5515 46.4018 96.5789 46.4215 96.6156C46.4411 96.6522 46.4454 96.6951 46.4333 96.7348C44.6481 102.966 40.9957 108.506 35.9648 112.612C35.9076 112.677 35.8369 112.728 35.7576 112.762C35.6784 112.797 35.5926 112.814 35.5061 112.812C35.4197 112.809 35.3347 112.789 35.2573 112.75C35.1798 112.712 35.1116 112.657 35.0576 112.59C35.0036 112.523 34.965 112.444 34.9446 112.361C34.9241 112.277 34.9223 112.19 34.9392 112.105C34.9561 112.021 34.9914 111.941 35.0426 111.872C35.0938 111.802 35.1595 111.745 35.2353 111.703L35.1897 111.685Z" fill="#18212A"/>
<path d="M28.2593 63.4721C32.6455 68.8251 34.8523 75.6048 36.0742 82.3119C36.0887 82.3883 36.088 82.4668 36.072 82.5429C36.056 82.619 36.025 82.6913 35.981 82.7555C35.9369 82.8196 35.8806 82.8745 35.8152 82.9169C35.7498 82.9593 35.6767 82.9885 35.6 83.0027C35.4455 83.0294 35.2866 82.9951 35.1571 82.9068C35.0277 82.8185 34.9379 82.6833 34.907 82.53C33.8492 75.9048 31.8704 69.2704 27.694 63.9265C27.6438 63.8511 27.6237 63.7596 27.6376 63.6702C27.6515 63.5807 27.6984 63.4997 27.7691 63.4428C27.8398 63.386 27.9292 63.3575 28.0199 63.363C28.1106 63.3684 28.196 63.4073 28.2593 63.4721Z" fill="#18212A"/>
<path d="M37.7154 69.3973C41.4076 63.8864 44.1792 57.8155 45.9224 51.4208C45.9405 51.3558 45.9839 51.3005 46.0429 51.2673C46.1019 51.2341 46.1717 51.2256 46.237 51.2437C46.3023 51.2618 46.3577 51.3049 46.3911 51.3637C46.4244 51.4225 46.4329 51.4921 46.4148 51.5572C45.6412 54.8078 44.62 57.9949 43.36 61.0907C42.0428 64.1723 40.5038 67.155 38.755 70.0154C38.7188 70.0898 38.6674 70.1556 38.604 70.209C38.5406 70.2623 38.4667 70.3018 38.387 70.3249C38.3074 70.348 38.2238 70.3541 38.1416 70.343C38.0594 70.3318 37.9805 70.3036 37.9099 70.2601C37.8394 70.2166 37.7788 70.1589 37.7321 70.0906C37.6853 70.0223 37.6534 69.945 37.6385 69.8637C37.6237 69.7824 37.626 69.6989 37.6456 69.6185C37.6651 69.5382 37.7013 69.4628 37.7519 69.3973H37.7154Z" fill="#18212A"/>
<path d="M35.8919 92.2818C40.6279 87.0574 44.0173 80.763 45.7677 73.9417C45.7743 73.9161 45.7858 73.8919 45.8018 73.8707C45.8177 73.8495 45.8377 73.8318 45.8606 73.8183C45.8834 73.8048 45.9087 73.7958 45.935 73.7921C45.9613 73.7883 45.9881 73.7897 46.0139 73.7963C46.0396 73.8029 46.0638 73.8145 46.0851 73.8304C46.1063 73.8462 46.1242 73.8662 46.1378 73.8889C46.1513 73.9117 46.1603 73.9369 46.1641 73.9632C46.1678 73.9894 46.1664 74.016 46.1598 74.0417C45.3602 77.5138 44.1799 80.8877 42.6399 84.1024C41.0971 87.3426 39.1217 90.3599 36.7674 93.0724C36.6623 93.1888 36.5158 93.2596 36.359 93.2698C36.2023 93.28 36.0477 93.2287 35.9284 93.1269C35.8705 93.0718 35.8244 93.0055 35.7929 92.9321C35.7614 92.8587 35.7451 92.7796 35.7451 92.6998C35.7451 92.6199 35.7614 92.5409 35.7929 92.4675C35.8244 92.3941 35.8705 92.3278 35.9284 92.2727L35.8919 92.2818Z" fill="#18212A"/>
<path d="M38.5088 148.02C37.8448 148.028 37.1991 147.802 36.685 147.383C35.682 146.556 35.1166 144.948 34.8613 142.321C34.855 142.244 34.8643 142.166 34.8885 142.091C34.9126 142.017 34.9512 141.949 35.0021 141.89C35.0529 141.831 35.115 141.782 35.1847 141.747C35.2545 141.712 35.3305 141.691 35.4084 141.685C35.4863 141.679 35.5646 141.688 35.639 141.712C35.7133 141.736 35.782 141.775 35.8413 141.825C35.9006 141.876 35.9493 141.938 35.9846 142.008C36.0198 142.077 36.0409 142.153 36.0467 142.23C36.2291 144.475 36.6759 145.866 37.4055 146.475C37.6006 146.624 37.824 146.732 38.0622 146.793C38.3003 146.854 38.5484 146.866 38.7915 146.829C38.8914 146.82 38.988 146.789 39.0747 146.739C39.1614 146.689 39.2359 146.62 39.293 146.538C40.0681 145.475 39.3842 142.221 39.1289 140.994V140.813C39.1115 140.737 39.1096 140.658 39.1233 140.582C39.137 140.505 39.166 140.432 39.2085 140.367C39.251 140.301 39.3062 140.245 39.3708 140.202C39.4355 140.158 39.5082 140.128 39.5848 140.113C39.7384 140.081 39.8986 140.11 40.0302 140.195C40.1618 140.28 40.2542 140.414 40.287 140.567V140.758C40.8341 143.348 41.1989 145.929 40.287 147.238C40.1332 147.455 39.9334 147.636 39.7018 147.768C39.4702 147.9 39.2124 147.98 38.9465 148.001C38.8013 148.018 38.6549 148.024 38.5088 148.02Z" fill="#18212A"/>
<path d="M44.6003 141.848C44.3589 141.831 44.1243 141.761 43.9132 141.643C43.702 141.525 43.5194 141.363 43.3784 141.167L43.1413 140.858C42.5485 140.031 40.971 137.813 36.293 139.04C36.1407 139.079 35.9791 139.058 35.8427 138.979C35.7064 138.901 35.6062 138.773 35.5635 138.622C35.5242 138.47 35.5461 138.309 35.6245 138.173C35.7029 138.038 35.8316 137.938 35.983 137.895C41.4543 136.432 43.4513 139.231 44.1079 140.149C44.1481 140.213 44.1939 140.274 44.2447 140.331C44.5729 140.685 44.5729 140.685 45.1018 140.522L45.3298 140.458C45.481 140.416 45.6426 140.435 45.7793 140.512C45.9161 140.589 46.0168 140.716 46.0593 140.867C46.0816 140.941 46.0888 141.019 46.0806 141.095C46.0724 141.172 46.049 141.247 46.0117 141.314C45.9743 141.382 45.9238 141.442 45.8631 141.49C45.8023 141.538 45.7327 141.573 45.6581 141.594L45.4392 141.658C45.1702 141.761 44.8876 141.825 44.6003 141.848Z" fill="#18212A"/>
<path d="M29.6725 146.711C29.5264 146.71 29.3856 146.656 29.2765 146.559C29.1675 146.462 29.0976 146.328 29.0798 146.184C28.3868 139.958 30.3838 139.086 33.5025 138.459C33.656 138.429 33.8149 138.462 33.9447 138.548C34.0745 138.635 34.1647 138.77 34.1955 138.922C34.2252 139.076 34.1932 139.236 34.1062 139.367C34.0193 139.498 33.8844 139.589 33.7304 139.622C31.1772 140.131 29.6361 140.44 30.2562 146.057C30.265 146.133 30.2586 146.211 30.2372 146.284C30.2158 146.358 30.1798 146.427 30.1315 146.487C30.0831 146.548 30.0233 146.597 29.9555 146.634C29.8877 146.671 29.8132 146.694 29.7364 146.702L29.6725 146.711Z" fill="#18212A"/>
<path d="M34.2411 157.907C32.1347 157.907 30.7577 156.898 30.2926 155.653C29.3169 153.109 29.089 146.42 29.0799 146.138C29.0774 146.06 29.0904 145.983 29.1179 145.911C29.1455 145.838 29.1872 145.771 29.2405 145.715C29.2939 145.658 29.3578 145.613 29.4288 145.581C29.4999 145.549 29.5765 145.531 29.6544 145.529C29.7322 145.527 29.8098 145.54 29.8826 145.567C29.9555 145.595 30.0221 145.636 30.0789 145.689C30.1356 145.742 30.1813 145.806 30.2133 145.877C30.2453 145.948 30.263 146.024 30.2653 146.102C30.2653 146.165 30.4933 152.872 31.396 155.19C31.8611 156.399 33.694 157.244 36.6394 156.235C39.375 155.326 39.5574 153.509 39.5666 153.454C39.6811 151.631 39.5831 149.801 39.2747 148.001C39.2483 147.847 39.2843 147.688 39.3749 147.561C39.4655 147.433 39.6033 147.346 39.758 147.319C39.8353 147.306 39.9144 147.309 39.9908 147.327C40.0671 147.344 40.1392 147.377 40.2028 147.423C40.2664 147.468 40.3202 147.526 40.3613 147.593C40.4023 147.659 40.4298 147.733 40.4419 147.81C40.7772 149.702 40.8782 151.628 40.7429 153.545C40.7429 153.627 40.5605 156.144 37.0224 157.344C36.1332 157.684 35.1932 157.875 34.2411 157.907Z" fill="#18212A"/>
<path d="M32.0161 146.811C31.396 146.811 30.6939 146.811 29.9005 146.756C29.8227 146.755 29.7459 146.738 29.6748 146.707C29.6037 146.675 29.5397 146.63 29.4868 146.573C29.4339 146.516 29.3932 146.449 29.3672 146.376C29.3411 146.302 29.3302 146.225 29.3351 146.147C29.3349 146.069 29.3509 145.992 29.3821 145.921C29.4133 145.849 29.4591 145.785 29.5165 145.732C29.574 145.679 29.6418 145.638 29.7157 145.613C29.7897 145.588 29.8681 145.578 29.9461 145.584C33.1377 145.711 34.4326 145.584 35.4174 145.066C35.4862 145.029 35.5616 145.007 35.6393 144.999C35.7169 144.992 35.7952 145 35.8697 145.023C35.9443 145.045 36.0136 145.083 36.0737 145.132C36.1337 145.182 36.1834 145.243 36.2199 145.311C36.2907 145.451 36.3037 145.613 36.2559 145.763C36.2082 145.913 36.1036 146.037 35.9646 146.111C34.7251 146.661 33.3698 146.901 32.0161 146.811Z" fill="#18212A"/>
<path d="M43.9164 149.056C42.5133 148.966 41.1568 148.518 39.9771 147.756C39.8471 147.669 39.7563 147.535 39.7239 147.382C39.6916 147.229 39.7202 147.07 39.8038 146.938C39.8463 146.873 39.9012 146.817 39.9655 146.773C40.0297 146.729 40.102 146.698 40.1783 146.682C40.2545 146.666 40.3331 146.665 40.4097 146.68C40.4862 146.694 40.5593 146.723 40.6245 146.765C41.6354 147.418 42.7967 147.803 43.9985 147.883C44.076 147.888 44.1518 147.908 44.2215 147.942C44.2912 147.976 44.3533 148.024 44.4043 148.082C44.4552 148.141 44.494 148.209 44.5182 148.282C44.5425 148.356 44.5518 148.433 44.5456 148.51C44.5339 148.665 44.4613 148.81 44.3435 148.912C44.2257 149.014 44.0722 149.066 43.9164 149.056Z" fill="#18212A"/>
<path d="M33.9677 151.073C33.6668 151.073 33.3841 151.073 33.1105 151.073C32.3081 151.019 30.3749 150.782 29.5724 149.855C29.5215 149.797 29.4827 149.729 29.4584 149.656C29.434 149.583 29.4245 149.505 29.4304 149.428C29.4364 149.351 29.4576 149.277 29.4929 149.208C29.5283 149.139 29.577 149.078 29.6362 149.028C29.6948 148.976 29.7634 148.936 29.8378 148.911C29.9122 148.886 29.991 148.876 30.0693 148.882C30.1477 148.888 30.224 148.91 30.2937 148.946C30.3635 148.982 30.4252 149.031 30.4752 149.092C31.2778 149.643 32.2366 149.923 33.2108 149.892C35.0346 150.019 37.7247 149.692 39.2566 148.347C39.3146 148.295 39.3824 148.254 39.456 148.229C39.5296 148.203 39.6076 148.191 39.6856 148.196C39.7635 148.2 39.8398 148.219 39.9102 148.253C39.9806 148.287 40.0436 148.334 40.0955 148.392C40.1977 148.511 40.2492 148.665 40.239 148.821C40.2288 148.978 40.1576 149.124 40.0408 149.228C38.2923 150.526 36.1455 151.179 33.9677 151.073Z" fill="#18212A"/>
<path d="M33.9496 155.063C32.7343 155.117 31.5289 154.823 30.4753 154.218C30.4097 154.175 30.3534 154.12 30.3095 154.056C30.2657 153.992 30.2351 153.919 30.2198 153.843C30.2045 153.767 30.2047 153.688 30.2204 153.612C30.2361 153.536 30.2669 153.464 30.3111 153.4C30.3535 153.334 30.4086 153.278 30.4731 153.234C30.5376 153.191 30.6103 153.16 30.6868 153.145C30.7633 153.13 30.8421 153.13 30.9186 153.146C30.995 153.161 31.0676 153.192 31.1319 153.236C33.1289 154.536 37.8251 153.8 39.503 151.918C39.6153 151.809 39.7657 151.749 39.9224 151.749C40.0791 151.749 40.2295 151.809 40.3419 151.918C40.4001 151.97 40.4475 152.033 40.4814 152.103C40.5152 152.173 40.5348 152.249 40.539 152.327C40.5433 152.405 40.532 152.482 40.506 152.556C40.48 152.629 40.4397 152.697 40.3875 152.754C39.0652 154.19 36.3661 155.063 33.9496 155.063Z" fill="#18212A"/>
</g>
<defs>
<clipPath id="clip0_9_1997">
<rect width="178" height="213" fill="white"/>
</clipPath>
</defs>
</svg>
